<?xml version="1.0" encoding="utf-8"?>
<!-- Generator: Adobe Illustrator 23.0.6, SVG Export Plug-In . SVG Version: 6.00 Build 0)  -->
<svg version="1.1" id="Layer_1" xmlns="http://www.w3.org/2000/svg" xmlns:xlink="http://www.w3.org/1999/xlink" x="0px" y="0px"
	 viewBox="0 0 512 512" style="enable-background:new 0 0 512 512;" xml:space="preserve">
<style type="text/css">
	.st0{fill:#E2DAFA;}
	.st1{fill:#F75138;}
	.st2{fill:#FED943;}
	.st3{fill:#D60013;}
	.st4{fill:#F2F2FC;}
</style>
<g>
	<g>
		<path class="st0" d="M285.5,56.1h-69.4c-20.6,0-37.4,16.8-37.4,37.4c0,3.9,3.1,7,7,7s7-3.1,7-7c0-12.9,10.5-23.4,23.4-23.4h69.4
			c12.9,0,23.4,10.5,23.4,23.4c0,3.9,3.1,7,7,7c3.9,0,7-3.1,7-7C322.9,72.8,306.2,56.1,285.5,56.1z"/>
		<path class="st1" d="M102.5,152.7h245v302.3h-245V152.7z"/>
		<path class="st2" d="M347.5,152.7h-245l31-59.3h245L347.5,152.7z"/>
		<path class="st3" d="M409.5,152.7v302.3h-62V152.7l24-45.9l7-13.4l7,13.4L409.5,152.7z"/>
		<path class="st1" d="M409.5,440v15.1h-7.9l-23.1-44.2l-23.1,44.2h-7.9V440l24-45.9V106.8l7-13.4l7,13.4v287.2L409.5,440z"/>
		<path class="st4" d="M347.5,271.5H244c-17.8-18.4-47.2-18.9-65.6-1.1c-0.4,0.4-0.8,0.8-1.1,1.1h-74.7v64.7h74.7
			c17.8,18.4,47.2,18.9,65.6,1.1c0.4-0.4,0.8-0.8,1.1-1.1h103.5V271.5z"/>
	</g>
	<path d="M415.7,146.4l-31-59.3c0,0-0.1-0.1-0.1-0.1c0,0-0.1-0.2-0.1-0.3c-1.3-2.1-3.5-3.4-6-3.4h-56.2
		C318.9,65.8,303.5,53,285.5,53h-69.4c-17.9,0-33.3,12.8-36.7,30.4h-45.9c-2.6,0-5,1.4-6.2,3.8l-31,59.3c0,0.1,0,0.1-0.1,0.2
		c-0.2,0.4-0.4,0.8-0.5,1.3c0,0.1-0.1,0.2-0.1,0.3c-0.1,0.5-0.2,1-0.2,1.5V452c0,3.9,3.1,7,7,7h307c3.9,0,7-3.1,7-7V149.7
		C416.5,148.5,416.2,147.4,415.7,146.4z M402.5,423.5l-17-32.5V118.9l17,32.5V423.5z M371.5,391l-17,32.5V151.4l17-32.5V391z
		 M340.5,261.5h-93.7c-20.5-18.9-52-18.9-72.5,0h-64.9V156.7h231L340.5,261.5z M109.5,275.5h67.7c1.9,0,3.7-0.8,5-2.1
		c15.1-15.7,40.1-16.1,55.7-1c0.3,0.3,0.7,0.6,1,1c1.3,1.4,3.1,2.1,5,2.1h96.5v50.7H244c-1.9,0-3.7,0.8-5,2.1
		c-15.1,15.7-40.1,16.1-55.7,1c-0.3-0.3-0.7-0.7-1-1c-1.3-1.4-3.1-2.1-5-2.1h-67.7L109.5,275.5z M378.5,407.8l19.4,37.2h-38.9
		L378.5,407.8z M216.1,67h69.4c10.2,0,19.3,6.6,22.3,16.4h-114C196.9,73.6,205.9,67,216.1,67L216.1,67z M137.7,97.4h229.2
		l-23.7,45.3H114.1L137.7,97.4z M109.5,340.2h64.9c20.5,18.9,52,18.9,72.5,0h93.6V445h-231L109.5,340.2z"/>
</g>
</svg>
