<?xml version="1.0" encoding="iso-8859-1"?>
<!-- Generator: Adobe Illustrator 19.0.0, SVG Export Plug-In . SVG Version: 6.00 Build 0)  -->
<svg xmlns="http://www.w3.org/2000/svg" xmlns:xlink="http://www.w3.org/1999/xlink" version="1.1" id="Layer_1" x="0px" y="0px" viewBox="0 0 512.032 512.032" style="enable-background:new 0 0 512.032 512.032;" xml:space="preserve" width="512" height="512">
<g id="lettuce">
	<g id="fill_49_">
		<path style="fill:#7EC66A;" d="M485.205,245.151c-7.215-8.978-9.773-20.899-6.828-32.034    c11.286-42.664-5.392-89.523-44.489-114.731s-88.663-21.057-122.865,6.832c-8.927,7.279-20.84,9.869-31.996,7.003    c-35.53-9.128-74.417,4.867-95.386,37.39c-26.115,40.505-7.993,79.241-7.95,79.326c1.029,2.64,42.225,118.165,0.654,222.27    c-4.574,11.454-0.43,24.541,9.935,31.224v0c10.366,6.683,23.996,5.055,32.541-3.838c77.664-80.833,199.894-90.993,202.723-91.146    c0.095,0.004,42.857,0.523,68.972-39.982C511.488,314.942,508.184,273.746,485.205,245.151z"/>
		<path style="fill:#5AAA4F;" d="M366.331,82.258c-20.031,2.103-39.343,9.944-55.307,22.961c-8.927,7.279-20.84,9.869-31.996,7.003    c-35.53-9.128-74.417,4.867-95.386,37.39c-26.115,40.505-7.993,79.241-7.95,79.326c1.029,2.64,42.225,118.165,0.654,222.27    c-4.574,11.454-0.43,24.541,9.936,31.224l0,0c10.366,6.683,23.996,5.056,32.541-3.838c20.469-21.304,44.033-37.694,67.691-50.29    c27.933-57.634,76.716-96.902,83.465-102.153c6.816-4.604,18.828-13.899,30.729-28.854c20.415-25.652,31.442-56.719,31.892-89.841    C433.294,156.248,407.661,109.485,366.331,82.258z"/>
		<path style="fill:#FFCD00;" d="M368.353,200.034c-13.606-8.772-118.32,127.856-179.982,211.481    c-2.854,13.232-6.772,26.532-12.008,39.651c-4.578,11.471-0.461,24.574,9.919,31.266l0,0c10.38,6.692,24.014,5.034,32.572-3.871    c9.788-10.184,20.285-19.242,31.16-27.303C300.733,360.577,381.959,208.806,368.353,200.034z"/>
		<path style="fill:#92DD7A;" d="M313.83,122.725c-10.879-3.784-19.37-12.533-22.779-23.535    c-13.063-42.154-52.056-73.032-98.57-73.663c-46.515-0.631-86.331,29.178-100.532,70.962    c-3.706,10.905-12.432,19.42-23.409,22.908C33.577,130.506,8.034,162.996,7.509,201.69c-0.654,48.19,35.255,71.414,35.337,71.464    c2.273,1.692,98.473,77.776,118.451,188.078c2.198,12.136,12.652,21.033,24.985,21.2l0,0c12.332,0.167,23.024-8.442,25.551-20.514    c22.963-109.72,121.192-183.166,123.51-184.796c0.083-0.047,36.609-22.289,37.263-70.479    C373.13,167.949,348.477,134.778,313.83,122.725z"/>
		<path style="fill:#7EC66A;" d="M158.514,135.492C156.306,72.569,199.43,45.289,231.67,33.71    c-12.067-5.086-25.288-7.994-39.19-8.183c-46.515-0.631-86.331,29.178-100.533,70.962c-3.706,10.906-12.432,19.42-23.409,22.908    C33.577,130.506,8.034,162.996,7.509,201.69c-0.654,48.19,35.255,71.415,35.337,71.464c2.273,1.692,98.473,77.776,118.451,188.079    c2.198,12.136,12.652,21.033,24.985,21.2c12.332,0.167,23.024-8.443,25.551-20.514c2.242-10.713,5.21-21.075,8.728-31.063    C70.623,272.521,161.63,224.262,158.514,135.492z"/>
		<path style="fill:#FFEB99;" d="M190.84,146.459c-16.187-0.22-32.486,171.147-40.403,274.746    c4.6,12.731,8.332,26.084,10.852,39.982c2.203,12.152,12.643,21.077,24.993,21.244h0c12.349,0.168,23.027-8.47,25.56-20.558    c2.896-13.825,6.99-27.072,11.933-39.674C218.671,318.424,207.027,146.679,190.84,146.459z"/>
		<path style="fill:#FFDE55;" d="M186.282,482.432L186.282,482.432c12.349,0.168,23.027-8.47,25.56-20.558    c2.241-10.697,5.205-21.044,8.719-31.018c-30.148-31.836-50.56-59.225-63.949-83.384c-2.388,26.122-4.475,51.491-6.174,73.734    c4.6,12.731,8.332,26.084,10.852,39.982C163.493,473.34,173.933,482.264,186.282,482.432z"/>
	</g>
	<path id="stroke_49_" d="M491.051,240.452c-5.722-7.12-7.749-16.622-5.423-25.417c12.464-47.12-6.695-96.531-47.676-122.952   c-35.614-22.961-80.523-23.991-117.201-2.685c-3.582,2.081-4.798,6.671-2.718,10.253c2.081,3.582,6.671,4.799,10.253,2.718   c31.776-18.46,70.684-17.571,101.538,2.321c35.501,22.889,52.1,65.691,41.303,106.509c-3.541,13.382-0.463,27.831,8.232,38.649   c21.629,26.915,23.58,64.511,4.856,93.553c-23.163,35.927-60.057,36.548-62.505,36.548c-0.029,0-33.356,2.457-75.694,15.656   c-29.738,9.271-54.396,20.721-74.648,32.655c11.275-20.438,24.491-44.715,37.715-69.737c25.44-11.978,58.109-22.508,95.915-23.873   c4.14-0.149,7.374-3.626,7.225-7.766c-0.149-4.141-3.635-7.362-7.766-7.225c-32.376,1.169-61.022,8.71-84.325,17.77   c10.722-20.657,21.076-41.213,30.002-59.97c13.288-4.123,31.45-8.048,53.766-8.75c4.14-0.13,7.391-3.592,7.261-7.731   c-0.13-4.141-3.588-7.391-7.731-7.261c-14.695,0.462-27.768,2.205-39.175,4.588c8.314-12.375,15.55-29.431,15.85-51.562   c0.556-41.021-25.087-77.633-63.81-91.102c-8.628-3.003-15.387-9.982-18.08-18.672c-14.427-46.557-56.877-78.281-105.633-78.942   c-20.042-0.275-39.798,4.816-57.111,14.718c-3.596,2.057-4.844,6.638-2.788,10.233c2.057,3.597,6.639,4.844,10.234,2.788   c14.987-8.571,32.056-12.979,49.462-12.741c42.236,0.573,79.011,28.055,91.508,68.384c4.098,13.222,14.37,23.838,27.48,28.399   c32.612,11.344,54.207,42.18,53.739,76.732c-0.586,43.251-32.264,63.311-33.662,64.173c-0.142,0.086-26.911,19.735-55.805,53.386   c-20.293,23.634-35.124,46.422-45.962,67.281c-1.261-22.885-2.938-50.54-5.017-79.007c15.247-23.724,37.38-50.061,68.649-71.234   c3.43-2.322,4.328-6.985,2.005-10.415c-2.322-3.431-6.986-4.327-10.416-2.005c-26.83,18.166-47.116,39.757-62.066,59.801   c-1.195-14.858-2.497-29.634-3.906-43.769c-0.812-8.147-1.634-15.81-2.465-23.007c9.44-10.982,22.72-23.71,40.94-35.922   c3.441-2.306,4.36-6.965,2.054-10.405c-2.307-3.442-6.967-4.36-10.406-2.054c-14.373,9.634-25.952,19.068-35.185,27.667   c-1.451-10.605-2.923-19.777-4.406-27.417c-4.242-21.846-8.632-34.52-18.518-34.653c-0.052-0.001-0.104-0.001-0.156-0.001   c-9.779,0-14.487,12.531-19.295,34.139c-1.753,7.879-3.537,17.406-5.342,28.472c-8.908-9.561-20.15-19.796-34.227-29.796   c-3.375-2.398-8.058-1.605-10.457,1.77c-2.399,3.377-1.606,8.06,1.771,10.458c18.202,12.93,31.16,26.247,39.948,37.033   c-1.025,7.168-2.055,14.801-3.086,22.918c-1.791,14.092-3.493,28.827-5.091,43.647c-14.4-20.442-34.094-42.575-60.421-61.463   c-3.366-2.416-8.052-1.645-10.466,1.722c-2.415,3.365-1.644,8.052,1.722,10.466c30.708,22.031,52.112,48.916,66.698,73.006   c-2.853,28.426-5.282,56.054-7.165,78.915c-13.499-27.712-29.944-51.067-44.12-68.513c-27.967-34.418-53.685-54.415-53.928-54.596   c-0.136-0.101-0.274-0.197-0.417-0.289c-1.483-0.974-32.486-21.887-31.9-65.058c0.468-34.552,22.893-64.791,55.8-75.246   c13.228-4.202,23.786-14.535,28.24-27.643c4.359-12.826,11.243-24.416,20.46-34.445c2.803-3.051,2.602-7.795-0.448-10.598   c-3.05-2.805-7.795-2.602-10.597,0.447c-10.637,11.576-18.583,24.956-23.617,39.77c-2.928,8.613-9.874,15.407-18.58,18.174   C27.193,124.664,0.566,160.566,0.01,201.588c-0.668,49.226,33.525,74.304,38.409,77.621c3,2.341,96.131,76.428,115.499,183.359   c2.705,14.935,15.202,26.094,30.136,27.257c5.039,2.808,10.593,4.188,16.125,4.188c8.829,0,17.589-3.495,24.054-10.224   c75.508-78.589,194.546-88.617,197.664-88.849c5.786-0.085,48.353-2.196,74.926-43.411   C519.053,317.05,516.734,272.411,491.051,240.452z M168.677,459.895c-2.496-13.779-6.174-27.006-10.649-39.59   c2.826-36.832,8.546-105.947,15.856-165.692c7.44-60.813,13.287-85.398,16.782-95.327c3.224,10.02,8.402,34.754,14.19,95.747   c5.688,59.943,9.533,129.221,11.358,166.107c-5.722,14.823-9.387,28.086-11.722,39.241c-1.789,8.549-9.388,14.625-18.108,14.552   C177.681,474.815,170.234,468.491,168.677,459.895z M217.306,469.452c0.798-1.91,14.364-98.1,107.229-173.712   c-26.655,53.516-60.393,114.872-80.37,150.611C233.445,454.387,224.563,462.254,217.306,469.452z"/>
</g>















</svg>
