<svg height="452pt" viewBox="0 -46 452.09466 452" width="452pt" xmlns="http://www.w3.org/2000/svg"><path d="m64.820312 22.402344c-1.949218 23.128906-26.050781 26.777344-26.050781 26.777344 20.695313.972656 25.851563 28.117187 25.851563 28.117187.441406-19.351563 26.640625-28.402344 26.640625-28.402344-19.625-1.175781-26.441407-26.492187-26.441407-26.492187zm0 0" fill="#d7e057"/><path d="m91.445312 45.898438c-17.210937-1.027344-23.664062-24.046876-23.730468-24.28125-.378906-1.40625-1.730469-2.328126-3.167969-2.203126-1.449219.132813-2.59375 1.285157-2.714844 2.734376-1.722656 20.429687-22.628906 23.925781-23.511719 24.066406-1.527343.230468-2.625 1.578125-2.546874 3.121094.082031 1.539062 1.316406 2.765624 2.855468 2.839843 18.058594.851563 22.996094 25.4375 23.046875 25.6875.273438 1.421875 1.515625 2.433594 2.941407 2.433594.085937 0 .167968-.003906.253906-.011719 1.527344-.128906 2.714844-1.386718 2.75-2.917968.390625-17.019532 24.382812-25.554688 24.625-25.636719 1.351562-.472657 2.183594-1.828125 1.988281-3.246094s-1.363281-2.5-2.789063-2.585937zm-27.136718 20.691406c-2.710938-6.257813-7.417969-13.8125-15.171875-17.753906 5.863281-2.804688 12.816406-7.824219 16.402343-16.542969 3.101563 6.140625 8.398438 13.757812 16.667969 17.445312-6.011719 3.277344-13.84375 8.808594-17.898437 16.851563zm0 0" fill="#3a312a"/><path d="m21.421875 56.363281c-1.378906 16.359375-18.421875 18.941407-18.421875 18.941407 14.632812.6875 18.28125 19.886718 18.28125 19.886718.3125-13.691406 18.84375-20.089844 18.84375-20.089844-13.882812-.832031-18.703125-18.738281-18.703125-18.738281zm0 0" fill="#d7e057"/><path d="m40.304688 72.105469c-11.53125-.6875-15.941407-16.371094-15.988282-16.527344-.378906-1.40625-1.707031-2.335937-3.164062-2.203125-1.449219.128906-2.597656 1.28125-2.71875 2.734375-1.15625 13.742187-15.292969 16.132813-15.882813 16.226563-1.527343.230468-2.6249998 1.582031-2.54687475 3.125.08203125 1.539062 1.31249975 2.765624 2.85546875 2.839843 12.070313.570313 15.445313 17.289063 15.480469 17.453125.269531 1.425782 1.515625 2.441406 2.945312 2.441406.082032 0 .164063-.007812.25-.011718 1.527344-.125 2.714844-1.386719 2.75-2.921875.261719-11.417969 16.664063-17.269531 16.824219-17.324219 1.351563-.46875 2.1875-1.824219 1.992187-3.242188-.199218-1.417968-1.367187-2.5-2.796874-2.589843zm-19.167969 13.59375c-1.847657-3.773438-4.679688-7.894531-8.894531-10.5625 3.710937-2.082031 7.394531-5.257813 9.742187-9.832031 2.113281 3.75 5.308594 7.910156 9.882813 10.449218-3.699219 2.199219-7.980469 5.476563-10.730469 9.945313zm0 0" fill="#3a312a"/><path d="m21.421875 3.046875c-1.378906 16.359375-18.421875 18.941406-18.421875 18.941406 14.632812.6875 18.28125 19.890625 18.28125 19.890625.3125-13.691406 18.84375-20.089844 18.84375-20.089844-13.882812-.832031-18.703125-18.742187-18.703125-18.742187zm0 0" fill="#d7e057"/><path d="m40.304688 18.792969c-11.476563-.6875-15.902344-16.226563-15.984376-16.527344-.378906-1.402344-1.710937-2.3359375-3.167968-2.2070312-1.449219.1289062-2.597656 1.2851562-2.71875 2.7382812-1.15625 13.742187-15.292969 16.128906-15.882813 16.222656-1.527343.230469-2.6249998 1.582031-2.54687475 3.125.08203125 1.539063 1.31249975 2.765625 2.85546875 2.839844 12.070313.570313 15.445313 17.289063 15.476563 17.453125.269531 1.425781 1.519531 2.441406 2.945312 2.441406.082031 0 .164062-.003906.25-.011718 1.527344-.125 2.714844-1.386719 2.75-2.921876.261719-11.417968 16.664062-17.269531 16.824219-17.324218 1.355469-.46875 2.1875-1.824219 1.992187-3.242188-.195312-1.417968-1.363281-2.5-2.792968-2.585937zm-19.167969 13.589843c-1.847657-3.773437-4.679688-7.894531-8.894531-10.5625 3.710937-2.082031 7.394531-5.257812 9.742187-9.832031 2.113281 3.746094 5.308594 7.910157 9.882813 10.445313-3.699219 2.203125-7.980469 5.484375-10.730469 9.949218zm0 0" fill="#3a312a"/><path d="m287.824219 156.558594 31.125-53.90625 31.96875 18.457031-31.125 53.910156zm0 0" fill="#87796f"/><path d="m353.820312 120.320312c-.207031-.765624-.707031-1.421874-1.394531-1.820312l-31.972656-18.457031c-1.433594-.832031-3.269531-.339844-4.097656 1.097656l-31.125 53.910156c-.394531.6875-.503907 1.507813-.296875 2.273438.207031.769531.707031 1.425781 1.398437 1.824219l31.96875 18.457031c.472657.273437.988281.402343 1.496094.402343 1.039063 0 2.046875-.535156 2.601563-1.5l31.125-53.910156c.394531-.6875.503906-1.507812.296874-2.277344zm-35.121093 50.589844-26.773438-15.457031 28.125-48.714844 26.773438 15.457031zm0 0" fill="#3a312a"/><path d="m378.128906 332.328125 12.179688-34.847656 58.765625 20.535156-12.179688 34.851563zm0 0" fill="#87796f"/><path d="m451.796875 316.734375c-.34375-.71875-.960937-1.265625-1.710937-1.53125l-58.765626-20.539063c-1.5625-.539062-3.277343.28125-3.820312 1.84375l-12.183594 34.847657c-.542968 1.5625.28125 3.277343 1.84375 3.820312l58.761719 20.542969c.328125.113281.664063.167969.988281.167969 1.242188 0 2.402344-.773438 2.832032-2.007813l12.183593-34.847656c.261719-.753906.21875-1.582031-.128906-2.296875zm-16.726563 32.328125-53.097656-18.558594 10.203125-29.183594 53.097657 18.558594zm0 0" fill="#3a312a"/><path d="m4.113281 231.804688 18.460938-31.96875 53.90625 31.125-18.460938 31.96875zm0 0" fill="#87796f"/><path d="m77.988281 228.363281-53.910156-31.125c-.6875-.398437-1.507813-.503906-2.277344-.300781-.765625.207031-1.421875.710938-1.820312 1.398438l-18.457031 31.972656c-.832032 1.433594-.335938 3.269531 1.097656 4.097656l53.910156 31.125c.457031.265625.976562.398438 1.5.398438.257812 0 .519531-.03125.773438-.101563.769531-.203125 1.425781-.707031 1.824218-1.398437l18.457032-31.96875c.832031-1.433594.335937-3.269532-1.097657-4.097657zm-21.054687 30.46875-48.714844-28.121093 15.457031-26.777344 48.714844 28.125zm0 0" fill="#3a312a"/><path d="m120.632812 114.34375 35.355469-10.625 17.914063 59.617188-35.355469 10.621093zm0 0" fill="#87796f"/><path d="m176.785156 162.457031-17.921875-59.617187c-.476562-1.585938-2.148437-2.488282-3.734375-2.007813l-35.351562 10.625c-1.585938.476563-2.488282 2.148438-2.011719 3.738281l17.917969 59.613282c.390625 1.296875 1.582031 2.136718 2.871094 2.136718.289062 0 .578124-.042968.867187-.128906l35.351563-10.625c.761718-.230468 1.402343-.753906 1.78125-1.453125.375-.699219.457031-1.519531.230468-2.28125zm-36.21875 7.75-16.191406-53.867187 29.605469-8.902344 16.191406 53.871094zm0 0" fill="#3a312a"/><path d="m380.613281 160.996094c-2.335937-16.828125-17.875-28.574219-34.703125-26.238282-16.828125 2.339844-28.574218 17.875-26.234375 34.703126 2.335938 16.828124 17.875 28.574218 34.703125 26.238281 16.828125-2.339844 28.574219-17.875 26.234375-34.703125zm0 0" fill="#fce8cb"/><path d="m350.136719 131.46875c-18.617188 0-33.761719 15.144531-33.761719 33.761719 0 18.613281 15.144531 33.761719 33.761719 33.761719 18.621093 0 33.761719-15.148438 33.761719-33.761719 0-18.617188-15.144532-33.761719-33.761719-33.761719zm0 61.523438c-15.304688 0-27.761719-12.453126-27.761719-27.761719 0-15.308594 12.453125-27.761719 27.761719-27.761719 15.308593 0 27.761719 12.453125 27.761719 27.761719 0 15.308593-12.453126 27.761719-27.761719 27.761719zm0 0" fill="#3a312a"/><path d="m230.25 127.046875c-.464844-16.984375-14.605469-30.375-31.589844-29.910156-16.980468.464843-30.371094 14.605469-29.910156 31.589843.464844 16.980469 14.609375 30.371094 31.589844 29.910157 16.984375-.464844 30.375-14.609375 29.910156-31.589844zm0 0" fill="#fce8cb"/><path d="m199.511719 94.125c-18.617188 0-33.761719 15.144531-33.761719 33.761719 0 18.617187 15.144531 33.761719 33.761719 33.761719 18.617187 0 33.761719-15.148438 33.761719-33.761719 0-18.617188-15.144532-33.761719-33.761719-33.761719zm0 61.523438c-15.308594 0-27.761719-12.453126-27.761719-27.761719 0-15.308594 12.453125-27.761719 27.761719-27.761719 15.308593 0 27.761719 12.453125 27.761719 27.761719 0 15.308593-12.453126 27.761719-27.761719 27.761719zm0 0" fill="#3a312a"/><path d="m93.511719 189.410156c0 16.992188-13.773438 30.761719-30.761719 30.761719-16.992188 0-30.765625-13.769531-30.765625-30.761719 0-16.988281 13.773437-30.761718 30.765625-30.761718 16.988281 0 30.761719 13.773437 30.761719 30.761718zm0 0" fill="#fce8cb"/><path d="m62.75 155.648438c-18.621094 0-33.765625 15.148437-33.765625 33.761718 0 18.621094 15.148437 33.761719 33.765625 33.761719s33.761719-15.144531 33.761719-33.761719c0-18.613281-15.148438-33.761718-33.761719-33.761718zm0 61.527343c-15.308594 0-27.765625-12.453125-27.765625-27.761719 0-15.308593 12.457031-27.761718 27.765625-27.761718 15.304688 0 27.761719 12.453125 27.761719 27.761718 0 15.308594-12.457031 27.761719-27.761719 27.761719zm0 0" fill="#3a312a"/><path d="m38.519531 290.511719c-16.824219-2.34375-32.367187 9.394531-34.710937 26.222656-2.34375 16.824219 9.394531 32.367187 26.222656 34.710937 16.824219 2.34375 32.367188-9.394531 34.710938-26.222656 2.34375-16.824218-9.394532-32.367187-26.222657-34.710937zm0 0" fill="#f16c7a"/><path d="m34.289062 287.195312c-18.617187 0-33.761718 15.144532-33.761718 33.761719 0 18.617188 15.144531 33.761719 33.761718 33.761719 18.617188 0 33.761719-15.144531 33.761719-33.761719 0-18.617187-15.148437-33.761719-33.761719-33.761719zm0 61.527344c-15.308593 0-27.761718-12.457031-27.761718-27.761718 0-15.308594 12.453125-27.761719 27.761718-27.761719 15.308594 0 27.761719 12.453125 27.761719 27.761719 0 15.304687-12.453125 27.761718-27.761719 27.761718zm0 0" fill="#3a312a"/><path d="m93.511719 133.488281c-21.273438 0-38.519531 17.242188-38.519531 38.515625 0 21.269532 17.246093 38.511719 38.519531 38.511719 21.269531 0 38.511719-17.242187 38.511719-38.511719 0-21.273437-17.242188-38.515625-38.511719-38.515625zm0 0" fill="#f16c7a"/><path d="m93.511719 130.488281c-22.894531 0-41.515625 18.625-41.515625 41.511719 0 22.890625 18.625 41.515625 41.515625 41.515625 22.886719 0 41.511719-18.621094 41.511719-41.515625 0-22.890625-18.621094-41.511719-41.511719-41.511719zm0 77.027344c-19.585938 0-35.515625-15.929687-35.515625-35.511719 0-19.582031 15.933594-35.515625 35.515625-35.515625s35.511719 15.933594 35.511719 35.515625c0 19.582032-15.929688 35.511719-35.511719 35.511719zm0 0" fill="#3a312a"/><path d="m268.789062 94.972656c-21.269531 0-38.515624 17.246094-38.515624 38.515625s17.246093 38.515625 38.515624 38.515625c21.273438 0 38.515626-17.246094 38.515626-38.515625s-17.242188-38.515625-38.515626-38.515625zm0 0" fill="#f16c7a"/><path d="m268.789062 91.972656c-22.890624 0-41.515624 18.621094-41.515624 41.515625 0 22.890625 18.625 41.511719 41.515624 41.511719 22.894532 0 41.515626-18.621094 41.515626-41.511719s-18.621094-41.515625-41.515626-41.515625zm0 77.03125c-19.582031 0-35.515624-15.933594-35.515624-35.515625s15.933593-35.515625 35.515624-35.515625c19.585938 0 35.515626 15.933594 35.515626 35.515625 0 19.585938-15.929688 35.515625-35.515626 35.515625zm0 0" fill="#3a312a"/><path d="m436.917969 206.820312c-3.558594-20.972656-23.441407-35.089843-44.414063-31.53125-20.96875 3.554688-35.085937 23.4375-31.53125 44.410157 3.558594 20.96875 23.441406 35.085937 44.414063 31.53125 20.96875-3.558594 35.085937-23.441407 31.53125-44.410157zm0 0" fill="#f16c7a"/><path d="m398.957031 171.75c-22.894531 0-41.515625 18.625-41.515625 41.511719 0 22.890625 18.621094 41.515625 41.515625 41.515625s41.515625-18.621094 41.515625-41.515625c0-22.890625-18.625-41.511719-41.515625-41.511719zm0 77.03125c-19.585937 0-35.515625-15.933594-35.515625-35.515625s15.929688-35.515625 35.515625-35.515625c19.582031 0 35.515625 15.933594 35.515625 35.515625s-15.933594 35.515625-35.515625 35.515625zm0 0" fill="#3a312a"/><path d="m412.433594 244.066406c-2.621094 0-5.179688.277344-7.640625.800782 4.761719-6.183594 7.640625-13.921876 7.640625-22.320313 0-20.242187-16.417969-36.640625-36.640625-36.640625-6.539063 0-12.679688 1.71875-17.980469 4.71875 1.203125-3.621094 1.863281-7.480469 1.863281-11.5 0-20.238281-16.402343-36.640625-36.640625-36.640625-10.839844 0-20.542968 4.742187-27.261718 12.222656-1.960938-18.382812-17.519532-32.703125-36.417969-32.703125-14.660157 0-27.28125 8.640625-33.140625 21.101563-5.859375-12.460938-18.480469-21.101563-33.140625-21.101563-18.898438 0-34.460938 14.320313-36.421875 32.703125-6.71875-7.480469-16.417969-12.222656-27.257813-12.222656-20.242187 0-36.640625 16.402344-36.640625 36.640625 0 4.019531.660156 7.878906 1.859375 11.5-5.300781-3-11.4375-4.71875-17.980469-4.71875-20.21875 0-36.640624 16.398438-36.640624 36.640625 0 8.398437 2.882812 16.136719 7.640624 22.320313-2.457031-.523438-5.019531-.800782-7.640624-.800782-20.21875 0-36.636719 16.398438-36.636719 36.640625 0 17.417969 12.179687 32.019531 28.5 35.71875 18.796875-90.101562 98.679687-157.78125 194.359375-157.78125 95.679687 0 175.558594 67.679688 194.359375 157.78125 16.320312-3.699219 28.5-18.300781 28.5-35.71875 0-20.242187-16.421875-36.640625-36.640625-36.640625zm0 0" fill="#d7e057"/><path d="m412.433594 241.066406c-.546875 0-1.09375.011719-1.640625.03125 3.050781-5.695312 4.640625-12.003906 4.640625-18.550781 0-21.859375-17.785156-39.640625-39.640625-39.640625-4.65625 0-9.269531.824219-13.609375 2.40625.324218-2.042969.488281-4.109375.488281-6.1875 0-21.859375-17.78125-39.640625-39.636719-39.640625-9.265625 0-18.21875 3.296875-25.308594 9.1875-4.433593-17.261719-20.027343-29.667969-38.375-29.667969-13.394531 0-25.878906 6.90625-33.136718 17.972656-7.261719-11.070312-19.746094-17.972656-33.140625-17.972656-18.34375 0-33.9375 12.40625-38.371094 29.667969-7.089844-5.890625-16.046875-9.1875-25.308594-9.1875-21.859375 0-39.640625 17.78125-39.640625 39.640625 0 2.078125.164063 4.144531.488282 6.1875-4.335938-1.582031-8.949219-2.40625-13.609376-2.40625-21.855468 0-39.640624 17.78125-39.640624 39.640625 0 6.546875 1.59375 12.855469 4.640624 18.550781-.542968-.019531-1.09375-.03125-1.640624-.03125-21.855469 0-39.636719 17.78125-39.636719 39.640625 0 18.636719 12.679687 34.527344 30.835937 38.644531.214844.050782.441406.074219.660156.074219.570313 0 1.132813-.164062 1.621094-.476562.675782-.4375 1.152344-1.125 1.316406-1.910157 18.785157-90.042968 99.292969-155.394531 191.421876-155.394531 92.132812 0 172.636718 65.351563 191.421874 155.394531.167969.785157.640626 1.472657 1.316407 1.910157.675781.433593 1.492187.578125 2.285156.402343 18.15625-4.117187 30.835937-20.007812 30.835937-38.644531.003907-21.859375-17.78125-39.640625-39.636718-39.640625zm10.402344 71.628906c-20.554688-91.195312-102.730469-157.046874-196.621094-157.046874-93.894532 0-176.066406 65.851562-196.621094 157.046874-13.628906-4.445312-23.238281-17.445312-23.238281-31.988281 0-18.550781 15.089843-33.640625 33.636719-33.640625 2.351562 0 4.710937.246094 7.023437.734375 1.234375.257813 2.492187-.273437 3.160156-1.335937.667969-1.066406.601563-2.433594-.164062-3.429688-4.589844-5.957031-7.019531-13.042968-7.019531-20.488281 0-18.550781 15.089843-33.640625 33.640624-33.640625 5.792969 0 11.496094 1.5 16.5 4.332031 1.078126.609375 2.421876.492188 3.382813-.292969.957031-.789062 1.335937-2.082031.945313-3.261718-1.132813-3.417969-1.707032-6.96875-1.707032-10.554688 0-18.550781 15.089844-33.640625 33.640625-33.640625 9.496094 0 18.621094 4.089844 25.027344 11.222657.789063.882812 2.027344 1.207031 3.152344.851562 1.128906-.363281 1.9375-1.359375 2.0625-2.535156 1.824219-17.117188 16.199219-30.019532 33.433593-30.019532 12.949219 0 24.890626 7.605469 30.429688 19.378907.492188 1.050781 1.550781 1.722656 2.710938 1.722656 1.164062 0 2.222656-.671875 2.714843-1.722656 5.535157-11.769531 17.476563-19.378907 30.425781-19.378907 17.238282 0 31.613282 12.90625 33.4375 30.019532.125 1.175781.933594 2.171875 2.058594 2.535156 1.132813.363281 2.363282.03125 3.15625-.851562 6.40625-7.132813 15.53125-11.222657 25.027344-11.222657 18.550781 0 33.640625 15.089844 33.640625 33.640625 0 3.585938-.574219 7.132813-1.707031 10.554688-.390625 1.179687-.015625 2.472656.941406 3.261718.960938.789063 2.304688.898438 3.382812.292969 5.007813-2.835937 10.710938-4.332031 16.503907-4.332031 18.546875 0 33.636719 15.089844 33.636719 33.640625 0 7.445313-2.425782 14.53125-7.015626 20.488281-.769531.996094-.832031 2.363282-.160156 3.429688.667969 1.0625 1.925782 1.597656 3.15625 1.335937 2.308594-.488281 4.671875-.734375 7.019532-.734375 18.546874 0 33.640624 15.089844 33.640624 33.640625.003907 14.542969-9.605468 27.542969-23.234374 31.988281zm0 0" fill="#3a312a"/><path d="m420.757812 317.222656c-18.511718-90.496094-98.574218-158.574218-194.546874-158.574218-95.96875 0-176.03125 68.078124-194.542969 158.574218-4.199219 20.523438 11.789062 39.660156 32.734375 39.660156h323.617187c20.949219 0 36.933594-19.136718 32.738281-39.660156zm0 0" fill="#fce8cb"/><path d="m423.695312 316.621094c-19.078124-93.273438-102.128906-160.972656-197.480468-160.972656-95.351563 0-178.40625 67.699218-197.484375 160.972656-2.160157 10.554687.539062 21.429687 7.394531 29.832031 6.964844 8.535156 17.273438 13.429687 28.277344 13.429687h78.988281c1.65625 0 3-1.339843 3-3 0-1.65625-1.34375-3-3-3h-78.984375c-9.195312 0-17.808594-4.089843-23.632812-11.222656-5.714844-7-7.960938-16.054687-6.164063-24.835937 18.507813-90.492188 99.089844-156.175781 191.605469-156.175781 92.511718 0 173.09375 65.683593 191.601562 156.175781 1.796875 8.78125-.449218 17.835937-6.164062 24.835937-5.820313 7.132813-14.433594 11.222656-23.628906 11.222656h-214.96875c-1.660157 0-3 1.34375-3 3 0 1.660157 1.339843 3 3 3h214.964843c11.007813 0 21.316407-4.894531 28.28125-13.429687 6.859375-8.402344 9.554688-19.277344 7.394531-29.832031zm0 0" fill="#3a312a"/><path d="m417.824219 317.828125c-18.519531-90.5-99.101563-156.179687-191.601563-156.179687-5.160156 0-10.277344.199218-15.339844.617187 85.960938 6.78125 158.800782 70.101563 176.28125 155.5625 1.78125 8.777344-.460937 17.839844-6.179687 24.839844-5.820313 7.121093-14.421875 11.21875-23.621094 11.21875h30.660157c9.199218 0 17.800781-4.097657 23.621093-11.21875 5.71875-7 7.980469-16.0625 6.179688-24.839844zm0 0" fill="#decaad"/></svg>