<?xml version="1.0" encoding="utf-8"?>
<!-- Generator: Adobe Illustrator 23.0.6, SVG Export Plug-In . SVG Version: 6.00 Build 0)  -->
<svg version="1.1" id="Capa_1" xmlns="http://www.w3.org/2000/svg" xmlns:xlink="http://www.w3.org/1999/xlink" x="0px" y="0px"
	 viewBox="0 0 512 512" style="enable-background:new 0 0 512 512;" xml:space="preserve">
<style type="text/css">
	.st0{fill:#EF75A7;}
	.st1{fill:#EB5793;}
	.st2{fill:#FCE4C6;}
	.st3{fill:#F8D9B4;}
	.st4{fill:#E7387F;}
</style>
<path class="st0" d="M116,88.8H39.6V23.1c0-8.6,7-15.6,15.6-15.6h45.2c8.6,0,15.6,7,15.6,15.6L116,88.8L116,88.8z"/>
<path class="st1" d="M100.4,7.5h-40c8.6,0,15.6,7,15.6,15.6v65.7h40V23.1C116,14.5,109,7.5,100.4,7.5z"/>
<path class="st2" d="M153.8,127.4c-10-9-22.9-13.9-36.3-13.9H35.7c-15.6,0-28.2,12.6-28.2,28.2v338.5c0,13.5,10.9,24.4,24.4,24.4
	h252.7c13.5,0,24.4-10.9,24.4-24.4v-4C309,343.1,252.6,216.4,153.8,127.4L153.8,127.4z M202.3,282.6c-7.4,0.4-14.4-3.5-18-10
	c-14.5-26.5-32.9-50.9-54.9-72.3c-5.1-4.9-7-12.3-5.1-19.1l0.1-0.4c4.1-14.3,22.2-18.7,32.5-7.9c23.5,24.6,43.8,51.7,60.9,80.6
	C225.1,266,216.7,281.8,202.3,282.6z"/>
<path class="st3" d="M153.8,127.4c-10-9-22.9-13.9-36.3-13.9h-33c13.4,0,26.3,5,36.3,13.9c98.8,89,155.1,215.8,155.1,348.7v4
	c0,13.5-10.9,24.4-24.4,24.4h33c13.5,0,24.4-10.9,24.4-24.4v-4C309,343.1,252.6,216.4,153.8,127.4L153.8,127.4z"/>
<path class="st4" d="M24.8,77.8h105.9v35.6H24.8L24.8,77.8z"/>
<path class="st0" d="M65.5,156.7c13.8,0,25,11.2,25,25v24.2c0,5.1,1.6,10.1,4.5,14.3l64.2,92c4.7,6.7,12.4,10.7,20.5,10.7H226
	c10.9,0,20.5,7,23.8,17.3c6.8,21.2,17.6,58.8,21.5,96.3c1.6,14.8-10.1,27.6-24.9,27.6H65.5c-13.8,0-25-11.2-25-25V181.7
	C40.5,167.9,51.7,156.7,65.5,156.7L65.5,156.7z"/>
<path d="M177.7,276.2c16.8,30.8,64.4,4,46.5-26.4c-17.4-29.6-38.2-57.2-61.9-82c-14.3-14.9-39.6-8.2-45.2,11.4
	c-2.7,9.5-0.1,19.7,7,26.6C145.5,226.4,163.5,250.1,177.7,276.2L177.7,276.2z M131.6,183.3c2.5-8.6,13.5-11.9,19.9-5.2
	c22.9,24,43,50.6,59.8,79.3c7.9,13.4-13,25.2-20.4,11.6c-15-27.4-33.9-52.3-56.2-74C131.5,191.9,130.4,187.5,131.6,183.3
	L131.6,183.3z"/>
<path d="M65.5,149.2c-17.9,0-32.5,14.6-32.5,32.5v257.5c0,17.9,14.6,32.5,32.5,32.5h180.9c19,0,34.4-17,32.4-35.9
	c-4.1-38.8-15.5-77.9-21.9-97.8c-4.3-13.5-16.8-22.5-31-22.5h-46.2c-5.7,0-11.1-2.8-14.4-7.5l-64.2-92c-2.1-3-3.2-6.4-3.2-10v-24.2
	C98.1,163.8,83.5,149.2,65.5,149.2L65.5,149.2z M153.1,316.6c6.1,8.7,16.1,13.9,26.7,13.9H226c7.6,0,14.4,4.9,16.7,12.1
	c6.2,19.3,17.2,57.3,21.2,94.8c1.1,10.2-7.3,19.3-17.5,19.3H65.5c-9.7,0-17.5-7.9-17.5-17.5V181.7c0-22.6,35.1-22.6,35.1,0v24.2
	c0,6.7,2,13.1,5.8,18.6L153.1,316.6z"/>
<path d="M311.6,497c0.5-0.8,1.3-2.2,2.1-3.9c2.8-6.2,2.6-11.8,2.6-14.6c-0.5-28.2-0.5-30-1.1-37c-0.5-6.8-0.9-11.1-1.1-12.4
	c-0.5-5.3-1.3-12.1-2.4-20c-0.5-3.5-1.2-8-2-13.1c-1.3-6.5-2.5-13-3.8-19.5c-0.8-3-1.5-6.1-2.2-9.3c-0.4-1.9-0.8-3.8-1.2-5.7
	c-3.8-15.5-8.9-32.4-15.5-50.5c-5.4-14.6-11.6-31.2-20.9-48.4c-5-9.2-10-18.5-15-27.7c-24.5-41.9-55.5-80.2-92.1-113.2
	c-6.1-5.5-13.1-9.6-20.6-12.3V77.8c0-4.1-3.4-7.5-7.5-7.5h-7.3V23.1c0-12.7-10.4-23.1-23.1-23.1H55.2C42.5,0,32.1,10.4,32.1,23.1
	v47.2h-7.3c-4.1,0-7.5,3.4-7.5,7.5V111C6.9,117.3,0,128.7,0,141.6V189c0,9.6,15,9.6,15,0v-47.4c0-11.4,9.3-20.7,20.7-20.7h81.9
	c11.6,0,22.7,4.3,31.3,12c97,87.5,152.7,212.5,152.7,343.1c0.3,10.5-4.9,20.9-16.9,20.9H31.9c-9.3,0-16.9-7.6-16.9-16.9V231
	c0-9.6-15-9.6-15,0v249.1C0,497.7,14.3,512,31.9,512c109,0,252.9,0,252.9,0l0,0c3.1-0.2,8.5-0.8,14.4-3.9
	C306,504.5,309.8,499.6,311.6,497L311.6,497z M47.1,23.1c0-4.5,3.6-8.1,8.1-8.1h45.2c4.5,0,8.1,3.6,8.1,8.1v46.1H47.1L47.1,23.1z
	 M35.7,105.9h-3.4V85.3h90.9v20.6h-5.7L35.7,105.9z"/>
</svg>
