<?xml version="1.0" encoding="utf-8"?>
<!-- Generator: Adobe Illustrator 23.0.6, SVG Export Plug-In . SVG Version: 6.00 Build 0)  -->
<svg version="1.1" id="Capa_1" xmlns="http://www.w3.org/2000/svg" xmlns:xlink="http://www.w3.org/1999/xlink" x="0px" y="0px"
	 viewBox="0 0 51.5 51.5" style="enable-background:new 0 0 51.5 51.5;" xml:space="preserve">
<style type="text/css">
	.st0{fill:#FAB900;stroke:#000000;stroke-miterlimit:10;}
	.st1{fill:#FDEB08;stroke:#000000;stroke-miterlimit:10;}
	.st2{fill:#E09A0A;stroke:#000000;stroke-miterlimit:10;}
	.st3{fill:#F8B700;stroke:#000000;stroke-miterlimit:10;}
	.st4{fill:#D32500;stroke:#000000;stroke-miterlimit:10;}
	.st5{fill:#F55E30;stroke:#000000;stroke-miterlimit:10;}
	.st6{fill:#FAC84D;stroke:#000000;stroke-miterlimit:10;}
</style>
<g>
	<path class="st0" d="M25.7,23.7c0.8,0,1.6-0.1,2.5-0.3V0h-5v23.4C24.2,23.6,25,23.7,25.7,23.7z"/>
	<path class="st1" d="M33.3,21.2V5h-5v18C30,22.6,31.8,22.2,33.3,21.2z"/>
	<path class="st2" d="M35.5,19.1c0.7-1,1.7-1.6,2.8-2V9h-5v12C34.2,20.4,34.9,19.9,35.5,19.1z"/>
	<path class="st1" d="M39.7,16.9h2.9c0.3,0,0.5,0,0.8,0.1v-5h-5v5.1C38.7,17,39.2,16.9,39.7,16.9z"/>
	<path class="st1" d="M23.3,23V5h-5v16.2C19.8,22.3,21.6,22.6,23.3,23z"/>
	<path class="st3" d="M16,19.1c0.6,0.8,1.4,1.3,2.3,1.9V9h-5v8.1C14.4,17.5,15.3,18.1,16,19.1z"/>
	<path class="st1" d="M9,16.9h2.9c0.5,0,1,0.1,1.4,0.2V12h-5v5C8.5,16.9,8.7,16.9,9,16.9z"/>
	<path class="st4" d="M39.7,16.4c-1.6,0-3.2,0.8-4.1,2.1c-2.1,2.9-6.7,4.7-9.8,4.7S18,21.4,16,18.5c-0.9-1.3-2.5-2.1-4.1-2.1H9
		c-1.7,0-2.7,1.5-2.7,3.1v0.2c0,9.8,1.6,19.5,4.8,28.8l0.2,0.6c0.5,1.3,2,2.4,3.3,2.4h22.1c1.8,0,3.3-1.3,3.6-3l0,0
		c3.3-9.2,4.9-19,4.8-28.8l0-0.2c0-1.7-1-3.1-2.7-3.1H39.7z"/>
	<path class="st5" d="M42.5,21.8h-2.9c-1.6,0-3.2,0.8-4.1,2.1c-2.1,2.9-6.7,4.7-9.8,4.7S18,26.8,16,23.9c-0.9-1.3-2.5-2.1-4.1-2.1H9
		c-1.4,0-2.3,1-2.5,2.2c0.4,8.3,2,16.5,4.7,24.4c0,0,8.7-2,14.6-2c6,0,14.5,2.2,14.6,2c2.8-7.9,4.4-16.1,4.7-24.4
		C44.8,22.8,43.9,21.8,42.5,21.8z"/>
	<ellipse class="st6" cx="26.3" cy="37.5" rx="7" ry="5"/>
</g>
</svg>
