<?xml version="1.0" encoding="utf-8"?>
<!-- Generator: Adobe Illustrator 23.0.6, SVG Export Plug-In . SVG Version: 6.00 Build 0)  -->
<svg version="1.1" id="orange_x5F_juice" xmlns="http://www.w3.org/2000/svg" xmlns:xlink="http://www.w3.org/1999/xlink" x="0px"
	 y="0px" viewBox="0 0 512 512" style="enable-background:new 0 0 512 512;" xml:space="preserve">
<style type="text/css">
	.st0{fill:#FF6977;}
	.st1{fill:#FFFFFF;}
</style>
<path class="st0" d="M109.4,473.9l15.3-15.3c4.9-4.9,13-4.9,17.9,0l12.7,12.7c4.9,4.9,13,4.9,17.9,0l12.7-12.7
	c4.9-4.9,13-4.9,17.9,0l12.7,12.7c4.9,4.9,13,4.9,17.9,0l12.7-12.7c4.9-4.9,13-4.9,17.9,0l12.7,12.7c4.9,4.9,13,4.9,17.9,0
	l12.7-12.7c4.9-4.9,13-4.9,17.9,0l12.7,12.7c4.9,4.9,13,4.9,17.9,0l12.7-12.7c4.9-4.9,13-4.9,17.9,0l15.3,15.3
	c2.3,2.3,6.3,0.7,6.3-2.6V40.7c0-3.3-4-4.9-6.3-2.6l-15.3,15.3c-4.9,4.9-13,4.9-17.9,0l-12.7-12.7c-4.9-4.9-13-4.9-17.9,0
	l-12.7,12.7c-4.9,4.9-13,4.9-17.9,0l-12.7-12.7c-4.9-4.9-13-4.9-17.9,0L265,53.5c-4.9,4.9-13,4.9-17.9,0l-12.7-12.7
	c-4.9-4.9-13-4.9-17.9,0l-12.7,12.7c-4.9,4.9-13,4.9-17.9,0l-12.7-12.7c-4.9-4.9-13-4.9-17.9,0l-12.7,12.7c-4.9,4.9-13,4.9-17.9,0
	l-15.3-15.3c-2.3-2.3-6.3-0.7-6.3,2.6v430.5C103.2,474.5,107.1,476.2,109.4,473.9z"/>
<path class="st1" d="M408.8,112.4H103.2v287.4h305.6V112.4z"/>
<path class="st0" d="M282.5,208.7c-9.8,0-19.1,2.2-27.4,6.2c-8.3-4-17.6-6.2-27.4-6.2c-35.3,0-63.9,28.6-63.9,63.9
	c0,35.3,28.6,74.7,63.9,74.7c9.8,0,19.1-2.2,27.4-6.2c8.3,4,17.6,6.2,27.4,6.2c35.3,0,63.9-39.4,63.9-74.7
	C346.4,237.3,317.8,208.7,282.5,208.7z"/>
<path d="M411,26.6c-5.7-2.4-12.2-1.1-16.6,3.3L379,45.3c-0.4,0.4-1.1,0.4-1.5,0l-12.7-12.7c-9.5-9.5-24.8-9.5-34.3,0l-12.7,12.7
	c-0.4,0.4-1.1,0.4-1.5,0l-12.7-12.7c-9.5-9.5-24.8-9.5-34.3,0l-12.7,12.7c-0.4,0.4-1.1,0.4-1.5,0l-12.7-12.7
	c-9.5-9.5-24.8-9.5-34.3,0l-12.7,12.7c-0.4,0.4-1.1,0.4-1.5,0l-12.7-12.7c-6.8-6.8-16.5-8.7-25-5.8c-7.7,6.2-15.4,12.4-23.2,18.6
	c-0.1-0.1-0.2-0.1-0.3-0.2l-15.3-15.3c-4.4-4.4-10.9-5.7-16.6-3.3s-9.4,7.9-9.4,14.1v215.5l0,0c0,32.4,0,64.8,0,97.1v117.9
	c0,6.2,3.7,11.7,9.4,14.1c1.9,0.8,3.9,1.2,5.9,1.2c4,0,7.8-1.5,10.8-4.5l15.3-15.3c0.4-0.4,1.1-0.4,1.5,0l12.7,12.7
	c9.4,9.5,24.8,9.5,34.3,0l12.7-12.7c0.4-0.4,1.1-0.4,1.5,0l12.7,12.7c9.5,9.5,24.8,9.5,34.3,0l12.7-12.7c0.4-0.4,1.1-0.4,1.5,0
	l12.7,12.7c9.5,9.4,24.8,9.4,34.3,0l12.7-12.7c0.4-0.4,1.1-0.4,1.5,0l12.7,12.7c9.5,9.4,24.8,9.4,34.3,0l12.7-12.7
	c0.4-0.4,1.1-0.4,1.5,0l15.3,15.3c4.4,4.4,10.9,5.7,16.6,3.3c5.7-2.4,9.4-7.9,9.4-14.1V251.4c0-6.4-5.2-11.6-11.6-11.6
	s-11.6,5.2-11.6,11.6V388H114.8V124h282.5v34.7c0,6.4,5.2,11.6,11.6,11.6s11.6-5.2,11.6-11.6v-118C420.4,34.5,416.7,29,411,26.6z
	 M397.2,411.1v41.1l-1.8-1.8c-9.5-9.4-24.8-9.4-34.3,0L348.5,463c-0.4,0.4-1.1,0.4-1.5,0l-12.7-12.7c-4.6-4.6-10.7-7.1-17.1-7.1
	s-12.6,2.5-17.1,7.1L287.3,463c-0.4,0.4-1.1,0.4-1.5,0l-12.7-12.7c-9.5-9.5-24.8-9.4-34.3,0L226.2,463c-0.4,0.4-1.1,0.4-1.5,0
	L212,450.3c-4.6-4.6-10.7-7.1-17.1-7.1c-6.5,0-12.6,2.5-17.1,7.1L165.1,463c-0.4,0.4-1.1,0.4-1.5,0l-12.7-12.7
	c-9.4-9.5-24.8-9.4-34.3,0l-1.8,1.8v-41.1H397.2z M114.8,100.9V59.8l1.8,1.8c9.4,9.5,24.8,9.5,34.3,0L163.5,49
	c0.4-0.4,1.1-0.4,1.5,0l12.7,12.7c9.4,9.5,24.8,9.5,34.3,0L224.7,49c0.4-0.4,1.1-0.4,1.5,0l12.7,12.7c9.5,9.5,24.8,9.5,34.3,0
	L285.8,49c0.4-0.4,1.1-0.4,1.5,0L300,61.7c9.4,9.5,24.8,9.5,34.3,0L346.9,49c0.4-0.4,1.1-0.4,1.5,0l12.7,12.7
	c9.4,9.5,24.8,9.5,34.3,0l1.8-1.8v41.1H114.8z"/>
<path d="M227.6,358.8c9.5,0,18.7-1.7,27.4-5.1c8.7,3.4,17.9,5.1,27.4,5.1c20.1,0,39.3-10.1,54.2-28.4c13.5-16.7,21.3-37.8,21.3-57.9
	c0-41.6-33.9-75.5-75.5-75.5c-5.3,0-10.5,0.6-15.5,1.6c1.2-11.4,6.2-21.9,14.4-30.1c4.5-4.5,4.5-11.9,0-16.4
	c-4.5-4.5-11.9-4.5-16.4,0c-12.6,12.6-20,29-21.3,46.6c-5.2-1.1-10.6-1.7-16.1-1.7c-41.6,0-75.5,33.9-75.5,75.5
	c0,20.1,7.8,41.2,21.3,57.9C188.3,348.7,207.6,358.8,227.6,358.8z M227.6,220.2c7.9,0,15.4,1.7,22.4,5.1c3.1,1.5,6.8,1.5,10,0
	c7-3.4,14.6-5.1,22.4-5.1c28.8,0,52.3,23.5,52.3,52.3c0,28.6-23.3,63.1-52.3,63.1c-7.9,0-15.4-1.7-22.4-5.1c-1.6-0.8-3.3-1.1-5-1.1
	c-1.7,0-3.4,0.4-5,1.1c-7,3.4-14.6,5.1-22.4,5.1c-29,0-52.3-34.5-52.3-63.1C175.3,243.7,198.8,220.2,227.6,220.2z"/>
<path d="M203.9,168.9c0-6.4-5.2-11.6-11.6-11.6h-38.2c-6.4,0-11.6,5.2-11.6,11.6c0,6.4,5.2,11.6,11.6,11.6h38.2
	C198.7,180.5,203.9,175.3,203.9,168.9z"/>
<path d="M408.8,193.5c-3,0-6,1.2-8.2,3.4c-2.2,2.2-3.4,5.1-3.4,8.2c0,3.1,1.2,6,3.4,8.2c2.2,2.2,5.1,3.4,8.2,3.4c3,0,6-1.2,8.2-3.4
	c2.2-2.2,3.4-5.1,3.4-8.2c0-3-1.2-6-3.4-8.2S411.9,193.5,408.8,193.5z"/>
</svg>
