<svg height="512pt" viewBox="0 0 512 512.00248" width="512pt" xmlns="http://www.w3.org/2000/svg"><path d="m15.421875 387.296875 13.246094-13.25c4.269531-4.269531 11.195312-4.269531 15.464843 0l10.9375 10.933594c4.269532 4.269531 11.191407 4.269531 15.464844 0l10.933594-10.933594c4.269531-4.269531 11.195312-4.269531 15.464844 0l10.933594 10.933594c4.269531 4.269531 11.195312 4.269531 15.464843 0l10.9375-10.933594c4.269531-4.269531 11.191407-4.269531 15.464844 0l10.933594 10.933594c4.269531 4.269531 11.195312 4.269531 15.464843 0l10.933594-10.933594c4.269532-4.269531 11.195313-4.269531 15.464844 0l10.9375 10.933594c4.269531 4.269531 11.191406 4.269531 15.464844 0l10.933594-10.933594c4.269531-4.269531 11.195312-4.269531 15.464843 0l13.25 13.25c2 2 5.417969.582031 5.417969-2.246094v-371.867187c0-2.828125-3.417969-4.246094-5.417969-2.246094l-13.25 13.25c-4.269531 4.269531-11.195312 4.269531-15.464843 0l-10.9375-10.9375c-4.269532-4.269531-11.191407-4.269531-15.464844 0l-10.933594 10.933594c-4.269531 4.269531-11.195312 4.269531-15.464844 0l-10.933594-10.933594c-4.269531-4.269531-11.195312-4.269531-15.464843 0l-10.9375 10.933594c-4.269531 4.269531-11.191407 4.269531-15.464844 0l-10.933594-10.933594c-4.269531-4.269531-11.195312-4.269531-15.464843 0l-10.933594 10.9375c-4.269532 4.269531-11.195313 4.269531-15.464844 0l-10.9375-10.9375c-4.269531-4.269531-11.191406-4.269531-15.464844 0l-10.933594 10.9375c-4.269531 4.269531-11.195312 4.269531-15.464843 0l-13.246094-13.25c-2-2-5.421875-.582031-5.421875 2.246094v371.867187c0 2.828125 3.421875 4.246094 5.421875 2.246094zm0 0" fill="#ff765b"/><path d="m10 75.117188h264v248.199218h-264zm0 0" fill="#fff"/><path d="m193.3125 190.492188s-42.996094 89.078124-127.917969 87.003906c53.628907-51.074219 57.148438-78.289063 89.976563-119.558594l4.671875-5.691406c7.863281-9.585938 21.753906-11.558594 31.976562-4.539063 9.988281 6.859375 13.257813 20.113281 7.601563 30.832031zm0 0" fill="#ff765b"/><path d="m243.417969 501.0625 13.25-13.25c4.269531-4.269531 11.191406-4.269531 15.464843 0l10.933594 10.9375c4.269532 4.269531 11.195313 4.269531 15.464844 0l10.9375-10.9375c4.269531-4.269531 11.191406-4.269531 15.464844 0l10.933594 10.9375c4.269531 4.269531 11.191406 4.269531 15.464843 0l10.933594-10.9375c4.269531-4.269531 11.195313-4.269531 15.464844 0l10.9375 10.9375c4.269531 4.269531 11.191406 4.269531 15.464843 0l10.933594-10.9375c4.269532-4.269531 11.195313-4.269531 15.464844 0l10.933594 10.9375c4.269531 4.269531 11.195312 4.269531 15.464844 0l10.9375-10.9375c4.269531-4.269531 11.191406-4.269531 15.464843 0l13.246094 13.25c2 2 5.421875.582031 5.421875-2.246094v-371.867187c0-2.828125-3.421875-4.246094-5.421875-2.246094l-13.246094 13.25c-4.273437 4.269531-11.195312 4.269531-15.464843 0l-10.9375-10.9375c-4.269532-4.269531-11.191407-4.269531-15.464844 0l-10.933594 10.9375c-4.269531 4.269531-11.195312 4.269531-15.464844 0l-10.933594-10.9375c-4.273437-4.269531-11.195312-4.269531-15.464843 0l-10.9375 10.9375c-4.269531 4.269531-11.191407 4.269531-15.464844 0l-10.933594-10.9375c-4.269531-4.269531-11.195312-4.269531-15.464843 0l-10.933594 10.9375c-4.273438 4.269531-11.195313 4.269531-15.464844 0l-10.9375-10.9375c-4.269531-4.269531-11.191406-4.269531-15.464844 0l-10.933594 10.9375c-4.269531 4.269531-11.195312 4.269531-15.464843 0l-13.25-13.25c-2-2-5.417969-.582031-5.417969 2.246094v371.867187c0 2.828125 3.417969 4.246094 5.417969 2.246094zm0 0" fill="#ff6977"/><path d="m501.996094 188.882812h-263.996094v248.199219h263.996094zm0 0" fill="#fff"/><path d="m392.882812 272c-8.480468 0-16.507812 1.914062-23.6875 5.332031-7.179687-3.414062-15.207031-5.332031-23.6875-5.332031-30.476562 0-55.1875 24.707031-55.1875 55.183594 0 30.476562 24.710938 64.480468 55.1875 64.480468 8.480469 0 16.507813-1.917968 23.6875-5.335937 7.179688 3.417969 15.207032 5.335937 23.6875 5.335937 30.476563 0 55.1875-34 55.1875-64.480468 0-30.476563-24.710937-55.183594-55.1875-55.183594zm0 0" fill="#ff6977"/><path d="m152.308594 145.902344-4.667969 5.691406c-.03125.039062-.0625.078125-.09375.117188-12.480469 15.6875-20.894531 29.46875-29.027344 42.796874-13.9375 22.832032-27.101562 44.394532-60.023437 75.746094-2.925782 2.789063-3.886719 7.070313-2.429688 10.84375 1.453125 3.773438 5.039063 6.296875 9.082032 6.394532 1.035156.027343 2.0625.039062 3.089843.039062 36.445313 0 71.011719-15.789062 100.136719-45.792969 21.457031-22.105469 32.675781-44.316406 33.855469-46.714843l6.234375-11.820313c6.425781-12.175781 4.722656-26.660156-3.488282-36.945313 3.445313-6.039062 4.171876-13.292968 1.875-19.976562-1.796874-5.222656-7.484374-8-12.710937-6.207031-5.222656 1.796875-8 7.488281-6.203125 12.710937.234375.683594.292969 1.402344.183594 2.09375-12.757813-3.835937-26.886719.144532-35.8125 11.023438zm38.46875 27.96875-6.308594 11.957031c-.054688.097656-.109375.207031-.15625.308594-.105469.210937-10.558594 21.484375-30.695312 42.089843-18.953126 19.390626-39.660157 31.667969-61.8125 36.699219 21.398437-23.328125 32.738281-41.902343 43.785156-59.996093 8.167968-13.378907 15.882812-26.015626 27.5625-40.707032l4.621094-5.632812c4.605468-5.617188 12.601562-6.75 18.585937-2.636719 5.804687 3.984375 7.707031 11.6875 4.417969 17.917969zm0 0"/><path d="m503.867188 114.777344c-4.941407-2.046875-10.578126-.925782-14.359376 2.855468l-13.25 13.246094c-.363281.367188-.957031.367188-1.320312 0l-10.9375-10.933594c-8.164062-8.164062-21.441406-8.164062-29.605469 0l-10.933593 10.933594c-.367188.367188-.960938.367188-1.324219 0l-10.933594-10.933594c-8.164063-8.164062-21.445313-8.164062-29.609375 0l-10.933594 10.933594c-.363281.363282-.960937.363282-1.324218 0l-10.933594-10.933594c-8.164063-8.164062-21.445313-8.164062-29.609375 0l-10.933594 10.933594c-.363281.363282-.957031.363282-1.320313 0l-10.9375-10.933594c-5.835937-5.835937-14.277343-7.476562-21.605468-4.972656v-101.789062c0-5.347656-3.191406-10.125-8.128906-12.171875s-10.574219-.9257815-14.359376 2.855469l-13.25 13.246093c-.363281.367188-.957031.367188-1.320312 0l-10.933594-10.933593c-8.164062-8.164063-21.441406-8.160157-29.605468 0l-10.9375 10.933593c-.363282.367188-.957032.367188-1.320313 0l-10.9375-10.933593c-8.160156-8.164063-21.441406-8.160157-29.605469 0l-10.9375 10.933593c-.363281.367188-.957031.367188-1.320312 0l-10.9375-10.933593c-8.164063-8.164063-21.445313-8.164063-29.605469 0l-10.933594 10.933593c-.363281.367188-.960937.367188-1.324219 0l-10.933593-10.933593c-8.164063-8.164063-21.445313-8.164063-29.609375 0l-10.933594 10.933593c-.367188.367188-.960938.367188-1.324219 0l-13.25-13.25c-3.777343-3.7773435-9.414062-4.902343-14.355469-2.851562-4.941406 2.046875-8.132812 6.820312-8.132812 12.171875v188.214844c0 5.523437 4.480469 10 10 10 5.523438 0 10-4.476563 10-10v-116.28125h244v45.9375c-.09375-.046876-.183594-.097657-.261719-.171876l-13.25-13.25c-3.78125-3.78125-9.414062-4.902343-14.355469-2.855468-4.941406 2.046875-8.132812 6.824218-8.132812 12.171875v186.167969h-208v-30.117188c0-5.523438-4.476562-10-10-10-5.519531 0-10 4.476562-10 10v102.054688c0 5.347656 3.191406 10.121093 8.132812 12.167968 1.640626.679688 3.355469 1.011719 5.054688 1.011719 3.421875 0 6.777344-1.339844 9.304688-3.867187l13.25-13.246094c.363281-.367188.957031-.367188 1.320312 0l10.933594 10.933594c8.164062 8.164062 21.449218 8.164062 29.609375 0l10.933593-10.933594c.363282-.367188.960938-.367188 1.324219 0l10.933594 10.933594c8.164063 8.164062 21.445313 8.164062 29.605469 0l10.9375-10.933594c.363281-.367188.957031-.367188 1.324218 0l10.933594 10.933594c8.164063 8.164062 21.441406 8.164062 29.605469 0l10.9375-10.933594c.363281-.367188.957031-.367188 1.320313 0l10.9375 10.933594c5.835937 5.835937 14.277343 7.476562 21.601562 4.972656v101.792968c0 5.347657 3.195312 10.125 8.132812 12.171876 1.640626.679687 3.355469 1.007812 5.054688 1.007812 3.421875 0 6.777344-1.335938 9.304688-3.863281l13.25-13.246094c.363281-.367187.957031-.367187 1.320312 0l10.9375 10.933594c8.160156 8.164062 21.441406 8.164062 29.605469 0l10.933593-10.933594c.363282-.367187.960938-.367187 1.324219 0l10.933594 10.933594c8.164063 8.164062 21.445313 8.164062 29.605469 0l10.9375-10.933594c.363281-.367187.957031-.367187 1.324218 0l10.933594 10.933594c8.164063 8.160156 21.445313 8.160156 29.605469 0l10.9375-10.933594c.363281-.367187.957031-.367187 1.324219 0l10.933594 10.933594c8.164062 8.160156 21.441406 8.160156 29.605468 0l10.9375-10.933594c.359375-.367187.957032-.367187 1.320313 0l13.25 13.246094c3.78125 3.78125 9.417969 4.902343 14.355469 2.855469 4.941406-2.046876 8.132812-6.824219 8.132812-12.171876v-189.9375c0-5.519531-4.476562-10-10-10s-10 4.480469-10 10v118h-243.996094v-228h243.996094v30c0 5.523438 4.476562 10 10 10s10-4.476562 10-10v-101.933593c-.003906-5.347657-3.195312-10.125-8.132812-12.171875zm-483.867188-49.660156v-35.457032l1.597656 1.597656c8.164063 8.160157 21.445313 8.160157 29.605469 0l10.9375-10.9375c.359375-.363281.957031-.363281 1.320313 0l10.9375 10.933594c3.953124 3.957032 9.210937 6.132813 14.800781 6.132813 5.59375 0 10.851562-2.175781 14.804687-6.132813l10.933594-10.933594c.363281-.363281.960938-.363281 1.324219 0l10.933593 10.933594c8.164063 8.164063 21.445313 8.164063 29.609376 0l10.933593-10.933594c.363281-.363281.960938-.363281 1.324219 0l10.933594 10.933594c3.953125 3.957032 9.210937 6.132813 14.804687 6.132813s10.851563-2.175781 14.804688-6.132813l10.933593-10.933594c.367188-.363281.957032-.363281 1.324219 0l10.933594 10.933594c8.164063 8.164063 21.445313 8.164063 29.605469 0l1.597656-1.59375v35.457032zm201.859375 312.792968c-.363281.367188-.957031.367188-1.320313 0l-10.9375-10.933594c-3.953124-3.953124-9.210937-6.132812-14.804687-6.132812-5.589844 0-10.847656 2.179688-14.800781 6.132812l-10.9375 10.933594c-.363282.367188-.957032.367188-1.320313 0l-10.9375-10.933594c-8.160156-8.164062-21.445312-8.164062-29.605469 0l-10.9375 10.933594c-.363281.363282-.957031.363282-1.320312 0l-10.933594-10.933594c-3.957031-3.953124-9.214844-6.132812-14.804687-6.132812-5.59375 0-10.851563 2.179688-14.804688 6.132812l-10.9375 10.933594c-.359375.367188-.957031.367188-1.320312 0l-10.933594-10.933594c-8.164063-8.164062-21.445313-8.164062-29.609375 0l-1.59375 1.597657v-35.460938h207.996094v38.660157zm270.136719 68.972656v35.457032l-1.59375-1.597656c-8.164063-8.160157-21.445313-8.160157-29.609375 0l-10.933594 10.9375c-.363281.363281-.957031.363281-1.324219 0l-10.933594-10.9375c-3.953124-3.953126-9.210937-6.132813-14.804687-6.132813s-10.851563 2.179687-14.804687 6.132813l-10.933594 10.9375c-.363282.363281-.957032.363281-1.324219 0l-10.933594-10.9375c-8.164062-8.164063-21.445312-8.160157-29.605469 0l-10.9375 10.9375c-.363281.359374-.960937.359374-1.320312 0l-10.9375-10.9375c-3.953125-3.953126-9.210938-6.132813-14.804688-6.132813-5.589843 0-10.847656 2.179687-14.800781 6.132813l-10.9375 10.9375c-.363281.363281-.960937.363281-1.320312 0l-10.9375-10.9375c-8.160157-8.164063-21.441407-8.160157-29.605469 0l-1.597656 1.597656v-35.457032zm-243.996094-268v-35.457031l1.597656 1.597657c8.160156 8.164062 21.445313 8.164062 29.605469 0l10.933594-10.9375c.363281-.363282.960937-.363282 1.324219 0l10.9375 10.9375c8.160156 8.164062 21.441406 8.164062 29.605468 0l10.933594-10.9375c.363281-.363282.957031-.363282 1.320312 0l10.9375 10.9375c8.164063 8.164062 21.441407 8.164062 29.605469 0l10.9375-10.9375c.363281-.359376.957031-.359376 1.320313 0l10.9375 10.9375c8.160156 8.164062 21.441406 8.164062 29.605468 0l10.9375-10.9375c.363282-.363282.957032-.363282 1.320313 0l10.9375 10.9375c8.160156 8.164062 21.441406 8.164062 29.605469 0l1.597656-1.597657v35.457031zm0 0"/><path d="m345.507812 401.664062c8.203126 0 16.152344-1.492187 23.6875-4.441406 7.535157 2.949219 15.484376 4.441406 23.6875 4.441406 17.351563 0 33.964844-8.703124 46.789063-24.511718 11.691406-14.410156 18.398437-32.625 18.398437-49.96875 0-35.941406-29.242187-65.1875-65.1875-65.1875-4.566406 0-9.046874.480468-13.425781 1.398437 1.058594-9.808593 5.382813-18.902343 12.460938-25.976562 3.902343-3.90625 3.902343-10.238281 0-14.144531-3.90625-3.902344-10.238281-3.902344-14.144531 0-10.878907 10.882812-17.300782 25.019531-18.394532 40.214843-4.519531-.980469-9.152344-1.492187-13.875-1.492187-35.941406 0-65.183594 29.242187-65.183594 65.1875 0 17.34375 6.707032 35.554687 18.398438 49.96875 12.824219 15.808594 29.4375 24.511718 46.789062 24.511718zm0-119.664062c6.785157 0 13.308594 1.464844 19.390626 4.363281 2.71875 1.292969 5.875 1.292969 8.597656 0 6.082031-2.898437 12.605468-4.363281 19.386718-4.363281 24.917969 0 45.1875 20.269531 45.1875 45.183594 0 24.679687-20.15625 54.480468-45.1875 54.480468-6.78125 0-13.304687-1.46875-19.386718-4.363281-1.359375-.648437-2.828125-.972656-4.300782-.972656-1.46875 0-2.9375.324219-4.296874.972656-6.085938 2.894531-12.609376 4.363281-19.390626 4.363281-25.03125 0-45.1875-29.804687-45.1875-54.480468 0-24.914063 20.273438-45.183594 45.1875-45.183594zm0 0"/><path d="m120 113.765625h-66c-5.519531 0-10 4.476563-10 10s4.480469 10 10 10h66c5.523438 0 10-4.476563 10-10s-4.476562-10-10-10zm0 0"/><path d="m325 237.636719c0-5.523438-4.480469-10-10-10h-33c-5.523438 0-10 4.476562-10 10 0 5.519531 4.476562 10 10 10h33c5.519531 0 10-4.480469 10-10zm0 0"/><path d="m54 173.765625h41c5.523438 0 10-4.476563 10-10s-4.476562-10-10-10h-41c-5.519531 0-10 4.476563-10 10s4.476562 10 10 10zm0 0"/><path d="m10 253c2.632812 0 5.210938-1.070312 7.070312-2.929688 1.859376-1.859374 2.929688-4.441406 2.929688-7.070312s-1.070312-5.210938-2.929688-7.070312c-1.859374-1.859376-4.4375-2.929688-7.070312-2.929688-2.628906 0-5.207031 1.070312-7.070312 2.929688-1.859376 1.859374-2.929688 4.441406-2.929688 7.070312s1.070312 5.210938 2.929688 7.070312c1.863281 1.859376 4.441406 2.929688 7.070312 2.929688zm0 0"/><path d="m501.996094 258.878906c-2.628906 0-5.207032 1.070313-7.070313 2.929688-1.859375 1.859375-2.929687 4.441406-2.929687 7.070312 0 2.640625 1.070312 5.210938 2.929687 7.082032 1.863281 1.859374 4.441407 2.917968 7.070313 2.917968 2.632812 0 5.210937-1.058594 7.070312-2.917968 1.859375-1.871094 2.929688-4.441407 2.929688-7.082032 0-2.628906-1.070313-5.210937-2.929688-7.070312s-4.4375-2.929688-7.070312-2.929688zm0 0"/></svg>