<svg id="Layer_1" enable-background="new 0 0 509.849 509.849" height="512" viewBox="0 0 509.849 509.849" width="512" xmlns="http://www.w3.org/2000/svg"><path d="m332.963 202.266c-29.843 0-56.859 12.105-76.406 31.672-19.789-24.787-50.258-40.672-84.442-40.672-59.647 0-108 48.353-108 108s48.353 108 108 108c29.843 0 56.859-12.105 76.406-31.672 19.789 24.787 50.258 40.672 84.441 40.672 59.647 0 108-48.353 108-108 .001-59.647-48.352-108-107.999-108z" fill="#91c656"/><path d="m405.08 290.884-43.698-32.186-75.267 102.187v-126.546h-54.272v136.099l-89.188-118.79-43.401 32.585 111.159 148.055v60.88h97.132v-69.864z" fill="#aced70"/><path d="m307.32 391.375c-19.704 22.964-59.204 39.464-75.476-28.844l-8.268-3.105c-34.206 20.274-63.27-2.197-89.34-28.601l76.178 101.463v60.88h97.131v-69.863l18.423-25.012c-6.166-2.268-14.293-11.994-18.648-6.918z" fill="#c0f28b"/><path d="m440.241 200.348c24.29-59.165-20.826-124.578-85.686-121.693-11.199-35.907-44.705-61.972-84.301-61.972-48.762 0-88.292 39.53-88.292 88.292-42.033 0-77.18 29.382-86.088 68.721-44.812 4.239-79.874 41.959-79.874 87.881 0 48.762 39.53 88.292 88.292 88.292 28.605 0 54.012-13.616 70.139-34.71 28.974 24.496 72.067 22.029 98.082-5.75 15.808 2.789 32.331 1.306 47.811-4.803 10.139 37.581 44.448 65.243 85.233 65.243 48.762 0 88.292-39.53 88.292-88.292 0-36.447-22.089-67.731-53.608-81.209z" fill="#9bd65e"/><path d="m493.849 281.558c0-36.448-22.089-67.732-53.608-81.21 24.276-59.131-20.771-124.581-85.686-121.693-11.199-35.907-44.705-61.972-84.301-61.972-48.762 0-88.292 39.53-88.292 88.292-33.786 0-63.111 18.992-77.948 46.872 42.865 77.63 212.079 62.27 282.771 216 55.115 11.938 107.064-30.069 107.064-86.289z" fill="#aced70"/><path d="m203.479 47.209c31.095 88.743 220.44 113.64 226.782 319.133 36.738-10.687 63.587-44.598 63.587-84.784 0-36.448-22.089-67.732-53.608-81.21 24.276-59.131-20.771-124.581-85.686-121.693-20.521-65.801-105.708-83.842-151.075-31.446z" fill="#c0f28b"/><path d="m509.849 281.558c0-36.841-19.285-70.446-50.173-89.171 15.933-63.011-29.355-125.231-94.033-129.595-7.238-16.271-18.687-30.701-33.012-41.406-62.861-46.976-154.323-9.746-165.605 68.671-39.413 5.735-71.187 33.022-83.696 69.353-48.228 9.85-83.33 52.426-83.33 102.167 0 42.118 25.097 78.481 61.121 94.929 22.789 45.61 71.475 73.386 123.531 68.118l9.762 13.002v55.542c0 8.836 7.164 16 16 16h97.131c8.837 0 16-7.164 16-16v-59.261c44.971 3.406 86.127-17.601 110.57-52.032 43.668-12.449 75.734-52.709 75.734-100.317zm-403.185 84.283c10.374-.229 20.473-1.96 30.046-5.072l23.85 31.766c-20.969-2.64-39.758-12.364-53.896-26.694zm187.998 47.974c-2.024 2.749-3.117 6.074-3.117 9.489v53.864h-65.131v-44.88c0-3.465-1.125-6.836-3.205-9.606l-57.588-76.702c3.975-2.905 7.762-6.105 11.33-9.59 4.544 2.61 9.313 4.792 14.235 6.545l27.863 37.111c9.194 12.246 28.795 5.738 28.795-9.606v-26.881c7.899-2.62 15.403-6.371 22.272-11.115v28.443c0 15.401 19.747 21.895 28.883 9.489l21.253-28.855c4.406 6.253 9.472 11.973 15.082 17.079zm92.884-29.547c-12.655 9.361-27.779 15.563-44.205 17.416l18.697-25.383c8.045 3.705 16.608 6.402 25.508 7.967zm18.011-30.418c-32.604 0-61.301-21.963-69.785-53.411-2.487-9.219-12.451-14.216-21.32-10.716-12.628 4.983-26.151 6.224-39.158 3.93-5.32-.941-10.762.873-14.459 4.819-20.737 22.143-54.197 22.963-76.073 4.468-7-5.916-17.502-4.745-23.041 2.501-13.813 18.066-34.745 28.427-57.428 28.427-62.714 0-95.516-74.99-53.355-121.063 12.138-13.264 28.633-21.498 46.445-23.183 6.884-.651 12.571-5.651 14.098-12.396 7.109-31.397 35.26-56.254 70.483-56.254 8.836 0 16-7.164 16-16 0-39.862 32.43-72.292 72.292-72.292 65.024 0 90.51 74.164 49.396 115.28-6.249 6.249-6.249 16.379 0 22.627 6.248 6.248 16.379 6.249 22.627 0 19.863-19.864 30.347-46.624 29.203-74.854 44.951 8.157 71.448 55.934 53.96 98.536-3.322 8.091.469 17.349 8.51 20.788 26.668 11.404 43.899 37.507 43.899 66.499-.002 39.864-32.432 72.294-72.294 72.294z"/></svg>