<?xml version="1.0" encoding="iso-8859-1"?>
<!-- Generator: Adobe Illustrator 19.0.0, SVG Export Plug-In . SVG Version: 6.00 Build 0)  -->
<svg version="1.1" id="Capa_1" xmlns="http://www.w3.org/2000/svg" xmlns:xlink="http://www.w3.org/1999/xlink" x="0px" y="0px"
	 viewBox="0 0 496 496" style="enable-background:new 0 0 496 496;" xml:space="preserve">
<path style="fill:#FB5968;" d="M249.952,459.904l-45.76-91.52C177.76,315.52,164,257.232,164,198.128V176c0-5.608-0.96-11-2.728-16
	L156,144H76l-5.272,16C68.96,165,68,170.392,68,176c0,97.584,37.48,191.448,104.688,262.2l41.568,43.76
	c3.672,3.856,8.76,6.04,14.08,6.04h4.248c10.72,0,19.416-8.696,19.416-19.416C252,465.568,251.296,462.6,249.952,459.904z"/>
<path style="fill:#CD2C5A;" d="M116,168c10.096,10.096,24.288,14.968,38.456,13.192L164,180v-4c0-5.608-0.96-11-2.728-16L156,144H76
	l-5.272,16C68.96,165,68,170.392,68,176c0,1.344,0.08,2.672,0.096,4.016l9.448,1.184C91.712,182.968,105.904,178.096,116,168z"/>
<path style="fill:#FB5968;" d="M246.048,36.096l45.76,91.52C318.24,180.48,332,238.768,332,297.872V320c0,5.608,0.96,11,2.728,16
	L340,352h80l5.272-16c1.768-5,2.728-10.392,2.728-16c0-97.584-37.48-191.448-104.688-262.2l-41.568-43.76
	c-3.672-3.856-8.76-6.04-14.08-6.04h-4.248C252.696,8,244,16.696,244,27.416C244,30.432,244.704,33.4,246.048,36.096z"/>
<path style="fill:#CD2C5A;" d="M380,328c-10.096-10.096-24.288-14.968-38.456-13.192L332,316v4c0,5.608,0.96,11,2.728,16L340,352h80
	l5.272-16c1.768-5,2.728-10.392,2.728-16c0-1.344-0.08-2.672-0.096-4.016l-9.448-1.184C404.288,313.032,390.096,317.904,380,328z"/>
<g>
	<path style="fill:#48C397;" d="M100.152,105.584V40c0-17.672,14.312-32,31.976-32l0,0v97.584c0,9.232,3.664,18.08,10.184,24.608
		l0,0c3.816,3.816,8.472,6.696,13.592,8.408l30.52,10.184c2.336,0.776,1.992,4.184-0.44,4.488l-31.416,3.928
		c-14.152,1.768-28.336-3.096-38.424-13.192l0,0l0,0C106.056,154.104,91.88,158.976,77.72,157.2l-31.768-3.976
		c-2.352-0.296-2.68-3.576-0.432-4.328L76.376,138.6c5.12-1.712,9.776-4.584,13.592-8.408l0,0
		C96.488,123.664,100.152,114.816,100.152,105.584z"/>
	<path style="fill:#48C397;" d="M395.848,390.416V456c0,17.672-14.312,32-31.976,32l0,0v-97.584c0-9.232-3.664-18.08-10.184-24.608
		l0,0c-3.816-3.816-8.472-6.696-13.592-8.408l-30.52-10.184c-2.336-0.776-1.992-4.184,0.44-4.488l31.416-3.928
		c14.152-1.768,28.336,3.096,38.424,13.192l0,0l0,0c10.088-10.096,24.264-14.968,38.424-13.192l31.768,3.976
		c2.352,0.296,2.68,3.576,0.432,4.328L419.624,357.4c-5.12,1.712-9.776,4.584-13.592,8.408l0,0
		C399.512,372.336,395.848,381.184,395.848,390.416z"/>
</g>
<path d="M211.344,364.808C185.608,313.32,172,255.68,172,198.136V176c0-4.328-0.672-8.56-1.64-12.72l16.608-2.08
	c4.808-0.6,8.504-4.384,8.984-9.216c0.48-4.824-2.4-9.264-7-10.8l-30.52-10.176c-3.92-1.304-7.536-3.544-10.464-6.472
	c-5.056-5.056-7.84-11.792-7.84-18.952V0h-8c-22.04,0-39.976,17.944-39.976,40v65.584c0,7.168-2.784,13.896-7.84,18.952
	c-2.92,2.928-6.536,5.168-10.464,6.472l-30.856,10.296c-4.56,1.52-7.416,5.928-6.944,10.712c0.48,4.792,4.144,8.544,8.912,9.144
	l16.688,2.088C60.672,167.416,60,171.656,60,176c0,100.08,37.96,195.152,106.888,267.704l41.568,43.76
	c5.16,5.424,12.4,8.536,19.88,8.536h4.248C247.696,496,260,483.696,260,468.584c0-4.224-1-8.464-2.896-12.264L211.344,364.808z
	 M78.912,146.184c6.264-2.088,12.048-5.664,16.712-10.336c8.08-8.08,12.528-18.824,12.528-30.264V40
	c0-10.424,6.672-19.32,15.976-22.624v88.208c0,11.432,4.448,22.176,12.52,30.256c4.672,4.68,10.456,8.256,16.72,10.344l6.744,2.248
	l-6.544,0.824c-11.792,1.44-23.368-2.504-31.776-10.912l-5.656-5.664l-5.664,5.664c-8.4,8.408-19.976,12.352-31.768,10.912
	l-6.544-0.824L78.912,146.184z M232.584,480h-4.248c-3.112,0-6.136-1.296-8.28-3.552l-41.568-43.76C112.4,363.12,76,271.96,76,176
	c0-3.704,0.632-7.304,1.616-10.808c1.992,0.216,3.976,0.376,5.952,0.376c11.808,0,23.176-3.832,32.568-10.968
	c10.896,8.272,24.424,12.056,38.248,10.624C155.368,168.72,156,172.312,156,176v22.136c0,60.024,14.192,120.136,41.032,173.832
	l45.76,91.512c0.792,1.576,1.208,3.344,1.208,5.104C244,474.88,238.88,480,232.584,480z"/>
<path d="M111.208,222.912L95.36,225.08c0.704,5.136,1.52,10.248,2.448,15.328l15.744-2.872
	C112.664,232.688,111.88,227.816,111.208,222.912z"/>
<path d="M100.8,255.104C114,313.424,142.088,368,182.048,412.928L194,402.296c-38.16-42.912-64.992-95.024-77.592-150.72
	L100.8,255.104z"/>
<path d="M384.792,273.088l15.848-2.176c-0.744-5.408-1.608-10.792-2.6-16.144l-15.736,2.904
	C383.256,262.784,384.08,267.92,384.792,273.088z"/>
<path d="M395.16,240.736c-13.208-58.264-41.288-112.784-81.208-157.664L302,93.704c38.128,42.864,64.944,94.936,77.56,150.568
	L395.16,240.736z"/>
<path d="M451.04,334.84l-16.688-2.088C435.328,328.584,436,324.344,436,320c0-100.08-37.96-195.152-106.888-267.704l-41.568-43.76
	C282.384,3.112,275.144,0,267.664,0h-4.248C248.304,0,236,12.304,236,27.416c0,4.224,1,8.464,2.896,12.264l45.76,91.512
	C310.392,182.68,324,240.32,324,297.864V320c0,4.328,0.672,8.56,1.64,12.72l-16.608,2.08c-4.808,0.6-8.504,4.384-8.984,9.216
	c-0.48,4.824,2.4,9.264,7,10.8l30.52,10.176c3.92,1.304,7.536,3.544,10.464,6.472c5.056,5.056,7.84,11.792,7.84,18.952V496h8
	c22.04,0,39.976-17.944,39.976-40v-65.584c0-7.168,2.784-13.896,7.84-18.952c2.92-2.928,6.536-5.168,10.464-6.472l30.856-10.296
	c4.56-1.52,7.416-5.928,6.944-10.712C459.472,339.192,455.808,335.44,451.04,334.84z M298.968,124.04l-45.76-91.512
	c-0.792-1.584-1.208-3.352-1.208-5.112C252,21.12,257.12,16,263.416,16h4.248c3.112,0,6.136,1.296,8.28,3.552l41.568,43.76
	C383.6,132.88,420,224.04,420,320c0,3.696-0.632,7.296-1.616,10.8c-13.888-1.52-27.56,2.272-38.528,10.6
	c-10.896-8.264-24.416-12.04-38.248-10.624C340.632,327.28,340,323.688,340,320v-22.136C340,237.84,325.808,177.736,298.968,124.04z
	 M417.088,349.816c-6.264,2.088-12.048,5.664-16.712,10.336c-8.08,8.08-12.528,18.824-12.528,30.264V456
	c0,10.424-6.672,19.32-15.976,22.624v-88.208c0-11.432-4.448-22.176-12.52-30.256c-4.672-4.68-10.456-8.256-16.72-10.344
	l-6.744-2.248l6.544-0.824c11.768-1.464,23.36,2.496,31.776,10.912l5.656,5.664l5.664-5.664c8.4-8.416,19.952-12.376,31.768-10.912
	l6.544,0.824L417.088,349.816z"/>
<g>
</g>
<g>
</g>
<g>
</g>
<g>
</g>
<g>
</g>
<g>
</g>
<g>
</g>
<g>
</g>
<g>
</g>
<g>
</g>
<g>
</g>
<g>
</g>
<g>
</g>
<g>
</g>
<g>
</g>
</svg>
