<?xml version="1.0" encoding="utf-8"?>
<!-- Generator: Adobe Illustrator 23.0.6, SVG Export Plug-In . SVG Version: 6.00 Build 0)  -->
<svg version="1.1" id="Ebene_1" xmlns="http://www.w3.org/2000/svg" xmlns:xlink="http://www.w3.org/1999/xlink" x="0px" y="0px"
	 viewBox="0 0 512 512" style="enable-background:new 0 0 512 512;" xml:space="preserve">
<style type="text/css">
	.st0{fill:#FBD490;}
	.st1{fill:#F4C076;}
	.st2{fill:#EEAF4B;}
	.st3{fill:#659C35;}
	.st4{fill:#A46F3E;}
	.st5{fill:#6A3311;}
	.st6{fill:#A4E869;}
	.st7{fill:#FFFFFF;}
	.st8{fill:#E6E6E6;}
	.st9{fill:#D2D5D7;}
	.st10{fill:#A5A5A5;}
	.st11{fill:#E0BB80;}
	.st12{fill:#DC9628;}
	.st13{fill:#C6A473;}
</style>
<g>
	<g>
		<path class="st0" d="M220.2,275.4c0-17.8,2.8-33.3,7.6-46.9c-4.6-11.9-7.6-20.3-7.6-22.7c0-91.7-73.8-123.5-117.5-134.2
			c-1.8-0.4-3.5,1-3.5,2.8v257.3c34.5,10.6,70,16.6,105.7,17.9C214.2,330.7,220.2,306.6,220.2,275.4z"/>
	</g>
	<g>
		<path class="st1" d="M266.1,175.1c-1.9-10.9-8.4-20.2-17.6-25.7c5.5-6.5,8.9-14.7,8.9-23.9c0-4.7-1-9.2-2.6-13.4
			c4.4,0.5,8.6-2,9.5-6.5c0.6-2.9,1.5-5.7,2.4-8.2c2.4-6.4,11-7.2,14.8-1.7c0.1,0.2,0.3,0.4,0.4,0.7c1.1,1.7,2.8,2.6,4.6,3.2
			c-0.2-5.6,0.9-10.4,2.5-14c2.6-6,10.5-6.9,14.6-1.9c0.7,0.8,1.3,1.6,1.9,2.5c4.3,6.1,13,6.2,17.6,0.2c2.3-3,4.9-5.2,7.1-6.4
			C311.2,43.6,269,24.2,220.2,24.2c-12.1,0-23.8-0.4-34.8-0.7c0.4,1.5,0.8,3.1,1.1,4.8c0.9,5.3,6.5,8.2,11.6,6.5
			c4.1-1.4,8.6-1.7,12.5,0.9c0.8,0.5,1.2,1.4,1.1,2.3c-0.2,2.5-1.7,6.5-4.7,10.5c-4.5,6-2.1,14.3,4.9,16.9c1,0.4,2,0.7,2.9,1.2
			c5.9,2.6,7.2,10.5,2.1,14.6c-4.6,3.7-16.6,24-29.9,36.1c19.2,20.4,33.1,48.8,33.1,88.5c0,2.4,3,10.8,7.6,22.7
			c8.3-23.3,22.5-40.7,38.8-53.8C266.5,174.8,266.3,174.9,266.1,175.1z"/>
	</g>
	<g>
		<path class="st2" d="M341.2,331.7V140.4c-43.1,9.9-120.9,40.8-120.9,135c0,31.2-6,55.3-15.3,74.1
			C250.8,351.3,296.9,345.3,341.2,331.7z"/>
	</g>
	<path class="st3" d="M102.8,71.6c24.8,6.1,59.2,19,84.4,45.7c13.3-12.2,25.3-32.5,29.9-36.1c5.1-4.1,3.8-12-2.1-14.6
		c-0.9-0.4-1.9-0.8-2.9-1.2c-7.1-2.5-9.4-10.9-4.9-16.9c3-4,4.5-8,4.7-10.5c0.1-0.9-0.4-1.8-1.1-2.3c-3.9-2.5-8.4-2.3-12.5-0.9
		c-5.1,1.7-10.7-1.1-11.6-6.5c-0.5-2.9-1.3-5.7-2.2-8.2c-2.2-6.4-10.8-7.5-14.8-2c-0.2,0.2-0.3,0.4-0.5,0.6
		c-1.2,1.7-2.9,2.6-4.6,3.1c0.3-5.6-0.7-10.4-2.2-14.1c-2.4-6-10.4-7.1-14.6-2.2c-0.7,0.8-1.3,1.6-2,2.5c-4.5,6-13.1,5.8-17.6-0.2
		c-3-4-6.4-6.6-8.7-7.6c-0.9-0.3-1.9-0.2-2.6,0.4c-3.6,3-4.6,7.3-4.5,11.7c0.2,5.4-4.2,9.9-9.6,9.2c-2.9-0.4-5.9-0.4-8.5-0.3
		c-6.8,0.3-10.3,8.1-6.3,13.6c0.2,0.2,0.3,0.4,0.5,0.6c3.4,4.3,1.8,10.4-3,13.1c-1.9,1.1-3.3,2.3-4.3,3.3c-0.8,0.8-0.9,2.2-0.2,3.1
		c4.2,5.3,11.4,12.2,18.4,18.4C100.1,72,101.4,71.2,102.8,71.6z"/>
	<path class="st4" d="M220.2,88.3c-3.6,0-7.1,0.6-10.4,1.6c-5.9,8-14,19.4-22.7,27.3c-0.5-0.6-1.1-1-1.7-1.6
		c11.3,11.5,20.7,25.8,26.9,43.3c-1.1-2.9-2.1-5.9-3.3-8.7c5.9-3.9,12.9-6.1,20.4-6.1c7,0,13.4,2,19,5.3c5.5-6.5,9-14.8,9-24
		C257.5,105,240.8,88.3,220.2,88.3z"/>
	<path class="st5" d="M223.9,218c1.9,0.3,3.7,0.6,5.6,0.6c0.9,0,1.7-0.2,2.5-0.3c8.4-18.1,20.4-32.2,34-43.3
		c-3-17.5-18.2-30.9-36.6-30.9c-7.6,0-14.6,2.3-20.4,6.1c6.9,15.5,11.1,33.8,11.1,55.5C220.2,207.4,221.6,211.8,223.9,218z"/>
	<g>
		<path class="st6" d="M369,131.7c-0.9-1-2.3-2.3-4.2-3.4c-4.7-2.8-6.1-8.9-2.7-13.1c0.2-0.2,0.3-0.4,0.5-0.6
			c4.2-5.3,0.9-13.3-5.9-13.7c-2.6-0.2-5.5-0.2-8.5,0.1c-5.4,0.5-9.6-4.1-9.4-9.5c0.2-4.3-0.7-8.7-4.2-11.8
			c-0.7-0.6-1.7-0.8-2.5-0.5c-2.3,0.9-5.8,3.4-8.9,7.3c-4.6,5.9-13.3,5.9-17.6-0.2c-0.6-0.9-1.2-1.7-1.9-2.5
			c-4.1-5-12.1-4.1-14.6,1.9c-1.6,3.7-2.7,8.4-2.5,14c-1.8-0.5-3.4-1.5-4.6-3.2c-0.1-0.2-0.3-0.4-0.4-0.7
			c-3.9-5.6-12.5-4.7-14.8,1.7c-0.9,2.4-1.8,5.2-2.4,8.2c-0.9,4.5-5.1,7-9.5,6.5c1.6,4.2,2.6,8.7,2.6,13.4c0,9.1-3.4,17.4-8.9,23.9
			c9.1,5.5,15.7,14.8,17.6,25.7c24.6-19.9,54-29.9,75.1-34.7v12c2-0.5,4-1,5.9-1.4c1.4-0.3,2.7,0.5,3.2,1.8c7.1-6,14.5-12.8,18.8-18
			C369.8,133.9,369.7,132.5,369,131.7z"/>
	</g>
	<path class="st7" d="M248.2,69.7c-15.4,0-27.9-12.5-27.9-27.9c0-5.1,4.2-9.3,9.3-9.3s9.3,4.2,9.3,9.3c0,5.1,4.2,9.3,9.3,9.3
		c5.1,0,9.3,4.2,9.3,9.3C257.5,65.6,253.3,69.7,248.2,69.7z"/>
	<path class="st7" d="M257.5,88.3c-5.1,0-9.3-4.2-9.3-9.3s4.2-9.3,9.3-9.3c5.1,0,9.3-4.2,9.3-9.3c0-5.1,4.2-9.3,9.3-9.3
		s9.3,4.2,9.3,9.3C285.4,75.8,272.8,88.3,257.5,88.3z"/>
	<path class="st8" d="M350.5,453.9c0,32.4-26.5,58.8-58.8,58.8H148.8c-32.4,0-58.8-26.5-58.8-58.8V334.3c0-3.6,3.4-6.2,6.9-5.2
		c75.5,21.5,171.1,21.5,246.6,0c3.5-1,6.9,1.6,6.9,5.2L350.5,453.9z"/>
	<path class="st9" d="M350.5,457.9l83.6-32.8c0.2-0.2,0.2-0.4,0-0.5l-83.6-32.8V457.9z"/>
	<path class="st7" d="M145.8,475.5c-5.1,0-9.3-4.2-9.3-9.3s4.2-9.3,9.3-9.3c90.8,0,167.5-38.3,167.5-83.7c0-5.1,4.2-9.3,9.3-9.3
		c5.1,0,9.3,4.2,9.3,9.3C331.9,430.5,250.2,475.5,145.8,475.5z"/>
	<path class="st10" d="M406.2,363.9c0.2-0.2,0.2-0.4,0-0.5l-55.7-8.8v37.2l20.5,8L406.2,363.9z"/>
	<circle class="st11" cx="174" cy="260.2" r="18.9"/>
	<circle class="st11" cx="136.8" cy="139.3" r="18.9"/>
	<circle class="st12" cx="303.7" cy="306.7" r="18.9"/>
	<circle class="st12" cx="266.8" cy="223.3" r="18.9"/>
	<circle class="st0" cx="213.9" cy="227.4" r="7.6"/>
	<circle class="st12" cx="249.9" cy="290.2" r="7.6"/>
	<circle class="st12" cx="315" cy="249.5" r="7.6"/>
	<circle class="st12" cx="315" cy="175" r="7.6"/>
	<circle class="st12" cx="255.7" cy="327.4" r="7.6"/>
	<circle class="st13" cx="147.6" cy="308.8" r="7.6"/>
	<circle class="st13" cx="190.6" cy="318.1" r="7.6"/>
	<circle class="st13" cx="129" cy="212.2" r="7.6"/>
	<circle class="st0" cx="172" cy="184.3" r="7.6"/>
</g>
<path d="M433.5,423.8l-0.2-9.5l-3.8-2.7L379.8,392l23.8-24.4l3.2-2.4l-0.2-9.5l-5.4-3.9l-47.7-7.5v-11.7c0-4.5-2-8.6-5.6-11.2
	c-1-0.8-2.1-1.4-3.3-1.8V166.3l5.5-4.7c8.9-7.5,15.3-13.7,19.1-18.3c3.5-4.2,3.3-10.5-0.4-14.6l0,0c-1.8-1.9-3.8-3.6-6.2-4.2
	l0.6-0.7c3.9-5,4.8-11.7,2.2-17.5c-2.6-5.7-8-9.5-14.3-9.9c-3.1-0.2-6-0.2-8.7,0c0.4-9.4-3.6-15-7-18c-1.6-1.4-3.4-2.3-5.4-2.7
	c-20.3-33-60.8-52.6-109.8-52.6c-9.2,0-18.1-0.3-26.7-0.5l-0.5,0c-2.5-4.5-6.8-7.8-12.1-8.6c-2.4-0.4-4.9-0.2-7.2,0.5
	c-0.2-0.6-0.4-1.1-0.6-1.6c-2.2-5.6-7.1-9.4-13-10.4c-6-1-12,1.2-15.9,5.8c-0.8,0.9-1.6,1.9-2.3,2.9c-0.3,0.4-0.7,0.6-1.1,0.6
	c-0.3,0-0.9-0.1-1.4-0.8c-3.5-4.7-7.9-8.4-12.1-10.1c-3.9-1.6-8.3-0.9-11.5,1.8c-3.5,2.9-7.6,8.4-7.5,17.9c-2.7-0.3-5.7-0.4-8.7-0.2
	c-6.2,0.2-11.8,3.9-14.5,9.6c-2.7,5.8-2.1,12.5,2.2,17.6c-2.3,1.3-4.4,2.9-6.2,4.8c-3.8,4-4.1,10.3-0.7,14.6
	c3.2,4.1,8.5,9.4,15.4,15.8v237.1c-1.2,0.5-2.3,1-3.3,1.8c-3.5,2.7-5.6,6.8-5.6,11.2v114.2c0,35.9,29.2,65.1,65.1,65.1h136.4
	c32.4,0,59.2-23.8,64.2-54.8l75.1-29.5L433.5,423.8z M379.8,366.5L362,384.8l-8.4-3.3v-19.1L379.8,366.5z M113.6,319.1V88
	c1.3,0.4,2.5,0.7,3.8,1.1c0.9,0.3,1.8,0.6,2.8,0.9c1.8,0.6,3.7,1.3,5.5,1.9c1,0.4,2.1,0.7,3.1,1.1c1.8,0.7,3.6,1.4,5.4,2.2
	c3.1,1.3,6.2,2.7,9.3,4.2c0.7,0.4,1.4,0.7,2.2,1c2.1,1.1,4.3,2.3,6.4,3.5c0.7,0.4,1.4,0.8,2.1,1.2c2.2,1.3,4.4,2.7,6.5,4.1
	c0.6,0.4,1.2,0.8,1.7,1.2c2.2,1.5,4.4,3.2,6.6,4.9c0.4,0.3,0.9,0.7,1.3,1c2.3,1.8,4.5,3.7,6.6,5.8c0.3,0.2,0.5,0.5,0.8,0.7
	c1.7,1.6,3.3,3.3,4.9,5c1.2,1.3,2.4,2.6,3.5,4c1.1,1.3,2.2,2.7,3.2,4c1.3,1.7,2.6,3.5,3.8,5.3c0.7,1,1.4,2,2,3.1
	c1.5,2.5,2.9,5,4.2,7.7c0.2,0.5,0.5,1,0.7,1.5c1.4,3,2.7,6.1,3.9,9.3c0.5,1.3,1,2.5,1.4,3.8c0.2,0.7,0.4,1.4,0.7,2.1
	c0.9,3.1,1.7,6.2,2.4,9.4c0.2,0.8,0.4,1.6,0.5,2.4c0.1,0.6,0.2,1.3,0.3,2c0.5,2.6,0.9,5.2,1.1,7.8c0.1,0.8,0.2,1.6,0.3,2.5
	c0.4,4.1,0.6,8.4,0.6,12.9c0,0.3,0,0.7,0,1.1c0,0.1,0,0.1,0,0.2c0,0.1,0,0.2,0,0.3c0,0.2,0.1,0.5,0.1,0.7c0,0.1,0,0.3,0.1,0.4
	c0,0.1,0.1,0.3,0.1,0.4c0,0.2,0.1,0.4,0.2,0.7c0.1,0.2,0.1,0.5,0.2,0.8c0,0.1,0.1,0.3,0.1,0.5c0,0.2,0.1,0.4,0.2,0.6
	c0.1,0.4,0.2,0.8,0.4,1.2c0.1,0.4,0.2,0.8,0.4,1.2c0.1,0.3,0.2,0.6,0.3,1c0.1,0.2,0.2,0.5,0.2,0.7c0.1,0.4,0.3,0.8,0.4,1.3
	c0.1,0.4,0.3,0.8,0.4,1.2c0.1,0.3,0.3,0.7,0.4,1.1c0.2,0.5,0.3,0.9,0.5,1.5c0,0,0,0.1,0,0.1l0,0c0.1,0.4,0.3,0.8,0.5,1.2
	c0.2,0.4,0.3,0.8,0.5,1.3c0.5,1.4,1.1,2.9,1.7,4.6c-3.5,10.8-5.6,22.5-6.4,34.8c-0.2,3.6-0.4,6.9-0.4,9.9c0,6.2-0.3,12.2-0.8,18
	c-0.2,1.9-0.5,3.6-0.7,5.5c-0.5,3.8-1,7.7-1.7,11.3c-0.4,2.1-0.9,4-1.4,6c-0.8,3.2-1.6,6.5-2.5,9.5c-0.6,2-1.4,3.9-2.1,5.8
	c-0.7,1.9-1.4,3.6-2.2,5.4c-1.2,0-2.3-0.1-3.5-0.1C168.3,331.7,140.5,326.9,113.6,319.1z M226.9,155.7c1.5-0.1,3-0.1,4.5,0
	c0.2,0,0.4,0,0.6,0c3.7,0.4,7.3,1.6,10.6,3.6l0.7,0.4c1.2,0.8,2.4,1.7,3.5,2.6c0.4,0.4,0.8,0.8,1.1,1.2c0.8,0.9,1.6,1.8,2.3,2.7
	c0.4,0.5,0.7,1,1,1.5c0.7,1,1.2,2.1,1.7,3.2c0.2,0.5,0.5,0.9,0.6,1.4c0.1,0.2,0.1,0.4,0.2,0.5c-0.3,0.3-0.6,0.6-1,0.9
	c-1.2,1.1-2.3,2.1-3.4,3.2c-1.9,1.9-3.8,3.8-5.5,5.7c-5.7,6.2-10.8,12.9-15,20c-0.1-4.4-0.4-8.8-0.8-13.1c-0.1-1.5-0.4-2.9-0.5-4.3
	c-0.4-3.1-0.9-6.1-1.4-9c-0.4-2-0.8-4.1-1.3-6c-0.5-1.9-1-3.8-1.6-5.7c-0.8-2.7-1.6-5.4-2.5-8c1.6-0.5,3.2-0.8,4.8-1
	C226.2,155.7,226.6,155.7,226.9,155.7z M244.5,118.1l0.5,1.2c0.6,1.6,1.1,3.2,1.4,4.7c0.3,1.6,0.5,3.2,0.5,4.8c0,2.2-0.3,4.1-0.7,6
	c-0.2,0.7-0.4,1.2-0.6,1.8c-0.4,1.1-0.7,2.2-1.2,3.1c-0.1,0.2-0.2,0.4-0.3,0.5c-4.7-1.7-9.7-2.6-15-2.6c-2.5,0-5.1,0.3-7.5,0.7
	c-0.7,0.1-1.4,0.3-2.1,0.5c-1.6,0.4-3.2,0.8-4.8,1.3c-0.3,0.1-0.7,0.2-1,0.3c-3.8-7-8.1-13.5-12.9-19.3c1.8-2,3.5-4,5.2-6
	c0.5-0.6,1-1.3,1.5-1.9c0.2-0.3,0.5-0.6,0.8-0.9c0.3-0.3,0.5-0.7,0.8-1c0.7-0.9,1.3-1.7,1.9-2.5c0.5-0.6,0.9-1.2,1.3-1.8
	c0.8-1.1,1.6-2.2,2.4-3.2c0.3-0.4,0.6-0.8,0.9-1.2c1.6-0.3,3.1-0.5,4.6-0.5C231.1,102.2,240.4,108.7,244.5,118.1z M219,334.1
	c0.2-0.7,0.4-1.4,0.7-2.1c0.6-1.8,1.2-3.7,1.7-5.6c1.1-3.6,2.1-7.3,3-11c0.5-2,0.9-4.1,1.3-6.2c0.8-4,1.4-8.1,1.9-12.3
	c0.2-1.9,0.5-3.8,0.7-5.8c0.6-6.2,0.9-12.5,0.9-19.1c0-4.4,0.2-8.5,0.6-12.6c0.1-1.3,0.3-2.5,0.5-3.8c0.3-2.8,0.7-5.6,1.2-8.3
	c0.2-1.2,0.5-2.4,0.8-3.7c0.6-2.8,1.3-5.5,2.1-8.1c0.3-0.9,0.5-1.8,0.8-2.6c0.7-2.1,1.5-4.1,2.3-6.1c0.9-2.4,2-4.7,3.1-7
	c0.1-0.3,0.3-0.6,0.4-0.9c0.9-1.9,1.9-3.7,2.9-5.5c1.2-2.1,2.4-4.1,3.7-6c1.1-1.6,2.2-3.2,3.4-4.8c1.9-2.5,4-4.9,6.1-7.3
	c0.6-0.7,1.2-1.5,1.9-2.2c0.3-0.4,0.7-0.7,1-1.1c3.2-3.3,6.6-6.4,10.2-9.4c1.9-1.5,3.8-2.9,5.7-4.3c0.3-0.2,0.6-0.5,0.9-0.7
	c2.1-1.5,4.2-2.8,6.3-4.2c0.3-0.2,0.7-0.4,1-0.6c2.1-1.3,4.3-2.5,6.4-3.7c0.4-0.2,0.7-0.4,1.1-0.6c2.1-1.1,4.3-2.2,6.4-3.2
	c0.4-0.2,0.8-0.4,1.2-0.6c2.1-1,4.2-1.9,6.3-2.8c0.4-0.2,0.9-0.4,1.3-0.5c2-0.8,4.1-1.6,6.1-2.4c0.5-0.2,1-0.3,1.5-0.5
	c1.9-0.7,3.9-1.4,5.7-2c0.6-0.2,1.1-0.3,1.6-0.5c1.7-0.6,3.5-1.1,5.2-1.6v164.6c-26.8,7.7-54.2,12.5-81.8,14.2
	C236.4,333.8,227.7,334.1,219,334.1z M343.3,114.2c1.5-0.2,3.1-0.2,4.9-0.2c-2.7,3.7-3.8,8.4-3,12.9c0.7,3.9,2.7,7.4,5.6,10
	c-1.6,1.6-3.7,3.5-6.2,5.8v-11l-10.9,2.5c-2.5,0.6-5.2,1.3-8.1,2c-2.1,0.6-4.2,1.2-6.2,1.8c-0.1,0-0.3,0.1-0.4,0.1
	c-20.5,6.1-37.2,14.1-50.7,23.4c0-0.1-0.1-0.1-0.1-0.2c-0.2-0.3-0.3-0.6-0.5-0.9c-0.6-1.2-1.4-2.2-2.2-3.4c-0.5-0.7-0.8-1.4-1.3-2
	c-0.2-0.2-0.4-0.5-0.6-0.7c-0.9-1.1-1.9-2.2-2.9-3.2c-0.5-0.5-0.9-1.1-1.4-1.6c1-1.8,1.8-3.7,2.5-5.6c0-0.1,0-0.2,0.1-0.2
	c0.8-2.1,1.4-4.3,1.8-6.6c0.1-0.5,0.2-0.9,0.3-1.4c0.4-2.3,0.6-4.7,0.6-7.1c0-2.3-0.2-4.5-0.6-6.8c3.5-2.4,6.1-6.1,7-10.5
	c0.3-1.5,0.7-3.1,1.3-4.8c2.1,2.8,5,4.7,8.6,5.8l12,3.7l-0.5-12.5c-0.1-3.6,0.5-6.4,1.2-8.4c0.3,0.4,0.6,0.7,0.8,1.1
	c3.6,5,9.1,8,15.2,8.2c1.4,0,2.8-0.2,4.2-0.5c0.7-0.1,1.3-0.4,1.9-0.6c0.8-0.2,1.5-0.4,2.2-0.8c0.5-0.2,1-0.6,1.6-0.8
	c0.8-0.4,1.6-0.8,2.3-1.4c0.5-0.3,0.9-0.8,1.3-1.2c0.5-0.4,1-0.8,1.4-1.2c0.3,4.3,2.2,8.4,5.4,11.4
	C333.6,113,338.5,114.6,343.3,114.2z M313.9,83.4c-0.8,0.9-1.6,1.7-2.3,2.7c-0.5,0.7-1.1,0.8-1.4,0.8c-0.2-0.1-0.8-0.2-1.1-0.7
	c-0.7-1-1.4-2-2.2-2.9c-3.9-4.7-9.8-7-15.8-6.2c-5.9,0.8-10.9,4.6-13.2,10.1c-0.2,0.5-0.4,1.1-0.6,1.6c-1.8-0.6-3.8-0.7-5.8-0.7
	c6.7-4.9,11-12.7,11-21.5c0-4.9-4-8.9-8.9-8.9s-8.9,4-8.9,8.9c0,4.9-4,8.9-8.9,8.9c-4.9,0-8.9,4-8.9,8.9c0,4.9,4,8.9,8.9,8.9
	c1.6,0,3.2-0.2,4.7-0.5c-1.8,1.7-3.3,3.7-4.2,6.1c-0.4,1.1-0.6,2.1-0.9,3.1c-6.6-8.6-16.1-14.8-27.2-16.8c0.7-2.3,1.1-4.8,0.7-7.3
	c-0.8-6.1-4.6-11.1-10.2-13.6c-1.1-0.5-2.2-0.9-3.4-1.3c-0.5-0.2-0.8-0.5-0.9-0.9c-0.1-0.3-0.2-0.9,0.4-1.6c2.6-3.5,4.5-7.4,5.5-11
	c0.4,14.4,12.1,26,26.6,26c4.9,0,8.9-4,8.9-8.9s-4-8.9-8.9-8.9c-4.9,0-8.9-4-8.9-8.9c0-3.1-1.7-5.7-4.1-7.3
	C269.6,44.7,298.5,59.7,313.9,83.4z M104.7,51c0.9-4.6-0.1-9.4-3.1-13c1.9-0.1,3.7,0.1,5.4,0.3c4.8,0.6,9.8-0.9,13.4-4.2
	c3.2-2.9,5.2-6.9,5.7-11.3c3.7,4.4,9,6.8,14.7,6.8h0c6.1,0,11.7-2.8,15.4-7.8c0.3-0.4,0.5-0.7,0.8-1c0.7,2,1.3,4.9,1,8.5l-0.8,12.5
	l12-3.4c3.7-1,6.7-3,8.6-6c0.6,1.8,1,3.6,1.3,5.2c0.8,4.8,3.7,9.1,7.9,11.6c3.8,2.2,8.2,3,12.4,2.1c-3.1,4.9-3.9,10.6-2.2,16.1
	c1.8,5.8,6.1,10.4,11.9,12.4c0.5,0.2,0.9,0.4,1.4,0.5c-1.6,1.5-3.4,3.7-5.8,6.9h0l-0.1,0.2c-0.9,1.2-1.8,2.5-2.9,4
	c-1.1,1.5-2.3,3.2-3.6,4.8c-0.4,0.5-0.8,1-1.1,1.5c-1.1,1.4-2.2,2.8-3.3,4.3c-0.4,0.5-0.8,1-1.2,1.5c-1.4,1.7-2.8,3.3-4.2,4.9
	c-24.6-22.5-55.5-34-78.4-39.6c-1.1-0.3-2.2-0.3-3.3-0.3c-0.1,0-0.2,0-0.4,0c-3.2-3-5.7-5.4-7.6-7.4C101.8,58.4,103.9,54.9,104.7,51
	z M288.4,494.2H152c-26.1,0-47.3-21.2-47.3-47.3V337.6c27.6,7.5,57.6,12,88.2,13.7l12.4,0.5h0l5.7,0.2l0.1-0.1c0.3,0,0.6,0,1,0
	c5.2,0.1,10.4,0.1,15.6,0c3.7-0.1,7.4-0.2,11.1-0.3c33.5-1.3,66.6-5.8,96.9-14v109.3C335.7,473,314.5,494.2,288.4,494.2z
	 M353.5,437.7v-37.1l12.9,5.1l34.4,13.5L353.5,437.7z"/>
<path d="M318,360.9c-4.9,0-8.9,4-8.9,8.9c0,43.4-73.3,80-160,80c-4.9,0-8.9,4-8.9,8.9s4,8.9,8.9,8.9c99.7,0,177.8-42.9,177.8-97.8
	C326.9,364.9,322.9,360.9,318,360.9z"/>
</svg>
