<?xml version="1.0" encoding="iso-8859-1"?>
<!-- Generator: Adobe Illustrator 19.0.0, SVG Export Plug-In . SVG Version: 6.00 Build 0)  -->
<svg version="1.1" id="Capa_1" xmlns="http://www.w3.org/2000/svg" xmlns:xlink="http://www.w3.org/1999/xlink" x="0px" y="0px"
	 viewBox="0 0 512.002 512.002" style="enable-background:new 0 0 512.002 512.002;" xml:space="preserve">
<g>
	<path style="fill:#F4D99D;" d="M191.969,83.078h128.068h0.195c6.566,0,11.938-5.372,11.938-11.938V21.938
		c0-6.566-5.372-11.938-11.938-11.938h-128.46c-6.566,0-11.939,5.372-11.939,11.938v49.201c0,6.566,5.372,11.938,11.939,11.938
		h0.197V83.078z"/>
	<path style="fill:#FFFBEE;" d="M323.012,139.817c-2.131-18.56-2.975-37.572-2.975-56.74H191.969c0,19.168-0.846,38.18-2.975,56.74
		C220.875,121.709,292.39,169.945,323.012,139.817z"/>
	<path style="fill:#FF435F;" d="M323.012,139.817c-30.622,30.128-102.137-18.109-134.018,0c-4.85,42.255-16.356,82.17-39.716,116.26
		c-7.302,0-13.276,5.878-13.276,13.062v20.436h240V269.14c0-7.184-5.974-13.062-13.275-13.062
		C339.367,221.987,327.859,182.072,323.012,139.817z"/>
	<path style="fill:#F4D99D;" d="M376.002,289.576h-240v173h240V289.576L376.002,289.576z M251.646,346.859
		c77.793-2.432,51.917,98.219-19.226,73.188C187.111,404.106,205.277,332.454,251.646,346.859z"/>
	<g>
		<path style="fill:#FF435F;" d="M232.42,420.047c71.143,25.031,97.02-75.62,19.226-73.188
			C205.277,332.454,187.111,404.106,232.42,420.047z"/>
		<path style="fill:#FF435F;" d="M376.002,462.576h-240v26.363c0,7.185,5.975,13.063,13.276,13.063h213.448
			c7.301,0,13.275-5.878,13.275-13.063v-26.363H376.002z"/>
	</g>
</g>
<path d="M368.56,246.811c-25.315-38.823-37.613-88.721-38.47-156.082c7.158-3.617,12.081-11.037,12.081-19.59V21.938
	C342.171,9.841,332.33,0,320.233,0h-128.46c-12.097,0-21.939,9.841-21.939,21.938v49.201c0,8.554,4.923,15.974,12.082,19.59
	c-0.857,67.361-13.155,117.258-38.471,156.081c-10.021,2.571-17.443,11.607-17.443,22.329v219.8
	c0,12.717,10.442,23.063,23.276,23.063h213.448c12.834,0,23.275-10.346,23.275-23.063v-219.8
	C386.002,258.418,378.581,249.383,368.56,246.811z M146.002,299.576h220v153h-220V299.576z M362.726,266.078
	c1.775,0,3.276,1.402,3.276,3.062v10.436h-220V269.14c0-1.66,1.5-3.062,3.276-3.062h41.709c5.523,0,10-4.477,10-10
	c0-5.523-4.477-10-10-10h-23.718c15.716-27.842,25.877-60.376,30.918-99.3c11.727-3.327,30.512,1.176,48.755,5.556
	c15.29,3.67,31.647,7.596,46.734,7.596c7.591,0,14.856-1.002,21.506-3.522c6.548,42.03,19.45,76.362,39.294,105.323
	C356.341,264.451,359.428,266.078,362.726,266.078z M312.513,135.447c-13.686,8.763-37.653,3.019-60.902-2.561
	c-18.427-4.423-36.116-8.666-51.257-6.875c0.839-10.531,1.35-21.498,1.535-32.933h108.229
	C310.359,107.975,311.159,122.068,312.513,135.447z M189.834,21.938c0-1.05,0.888-1.938,1.939-1.938h128.46
	c1.051,0,1.938,0.888,1.938,1.938v49.201c0,1.051-0.888,1.938-1.938,1.938h-0.195H191.969h-0.196c-1.051,0-1.939-0.888-1.939-1.938
	L189.834,21.938L189.834,21.938z M362.727,492.002H149.278c-1.776,0-3.276-1.402-3.276-3.063v-16.363h220v16.363
	C366.002,490.6,364.502,492.002,362.727,492.002z"/>
<path d="M220.457,246.08h-0.291c-5.523,0-10,4.477-10,10s4.477,10,10,10h0.291c5.523,0,10-4.477,10-10S225.98,246.08,220.457,246.08
	z"/>
<path d="M265.459,337.537c0.708-1.227,1.472-2.438,2.253-3.551c3.187-4.511,2.114-10.75-2.396-13.938
	c-4.512-3.188-10.751-2.115-13.938,2.396c-1.01,1.43-4.524,6.605-7.04,12.749c-1.532-0.153-3.051-0.235-4.554-0.235
	c-21.252,0-38.833,16.042-42.756,39.01c-3.547,20.767,4.995,45.986,32.072,55.512c8.618,3.032,17.1,4.57,25.21,4.57
	c15.583,0,29.811-5.792,40.061-16.307c9.387-9.63,14.77-22.569,14.77-35.5C309.142,361.973,295.523,341.551,265.459,337.537z
	 M280.049,403.783c-4.565,4.684-12.736,10.267-25.738,10.267c-5.844,0-12.092-1.156-18.572-3.436
	c-17.183-6.045-20.972-21.706-18.995-33.279c1.902-11.138,9.764-22.377,23.041-22.377c2.791,0,5.773,0.486,8.86,1.442
	c0.097,0.03,0.199,0.051,0.297,0.079c0.201,0.057,0.401,0.112,0.605,0.156c0.109,0.023,0.221,0.04,0.332,0.059
	c0.204,0.037,0.407,0.07,0.612,0.094c0.104,0.012,0.209,0.021,0.314,0.029c0.219,0.019,0.439,0.029,0.658,0.033
	c0.061,0.001,0.121,0.009,0.183,0.009c0.044,0,0.086-0.006,0.129-0.006c0.061-0.001,0.122,0.003,0.184,0.001
	c0.825-0.026,1.634-0.038,2.433-0.038c21.759,0,34.75,9.505,34.75,25.427C289.142,390.004,285.828,397.855,280.049,403.783z"/>
<g>
</g>
<g>
</g>
<g>
</g>
<g>
</g>
<g>
</g>
<g>
</g>
<g>
</g>
<g>
</g>
<g>
</g>
<g>
</g>
<g>
</g>
<g>
</g>
<g>
</g>
<g>
</g>
<g>
</g>
</svg>
